<svg xmlns="http://www.w3.org/2000/svg" xmlns:xlink="http://www.w3.org/1999/xlink" width="1080" zoomAndPan="magnify" viewBox="0 0 810 809.999993" height="1080" preserveAspectRatio="xMidYMid meet" version="1.0"><defs><clipPath id="ad8b3958f6"><path d="M 106.980469 106.980469 L 703.230469 106.980469 L 703.230469 703.230469 L 106.980469 703.230469 Z M 106.980469 106.980469 " clip-rule="nonzero"/></clipPath><clipPath id="ef0209cd5b"><path d="M 196.601562 196.601562 L 613.601562 196.601562 L 613.601562 613.601562 L 196.601562 613.601562 Z M 196.601562 196.601562 " clip-rule="nonzero"/></clipPath><clipPath id="333fc920d6"><path d="M 118.644531 118.644531 L 691.644531 118.644531 L 691.644531 691.644531 L 118.644531 691.644531 Z M 118.644531 118.644531 " clip-rule="nonzero"/></clipPath><clipPath id="2bb7b93a45"><path d="M 204.679688 204.679688 L 605.179688 204.679688 L 605.179688 605.179688 L 204.679688 605.179688 Z M 204.679688 204.679688 " clip-rule="nonzero"/></clipPath></defs><g clip-path="url(#ad8b3958f6)"><path fill="#ffa500" d="M 405 106.980469 C 240.570312 106.980469 106.980469 240.570312 106.980469 405 C 106.980469 569.425781 240.570312 703.019531 405 703.019531 C 569.425781 703.019531 703.019531 569.425781 703.019531 405 C 703.019531 240.570312 569.425781 106.980469 405 106.980469 Z M 405 119.9375 C 562.597656 119.9375 690.0625 247.398438 690.0625 405 C 690.0625 562.597656 562.597656 690.0625 405 690.0625 C 247.398438 690.0625 119.9375 562.597656 119.9375 405 C 119.9375 247.398438 247.398438 119.9375 405 119.9375 Z M 405 119.9375 " fill-opacity="1" fill-rule="nonzero"/></g><g clip-path="url(#ef0209cd5b)"><path fill="#ffa500" d="M 404.996094 196.601562 C 290.015625 196.601562 196.601562 290.015625 196.601562 404.996094 C 196.601562 519.976562 290.015625 613.390625 404.996094 613.390625 C 519.976562 613.390625 613.390625 519.976562 613.390625 404.996094 C 613.390625 290.015625 519.976562 196.601562 404.996094 196.601562 Z M 404.996094 205.660156 C 515.199219 205.660156 604.328125 294.789062 604.328125 404.996094 C 604.328125 515.199219 515.199219 604.328125 404.996094 604.328125 C 294.789062 604.328125 205.660156 515.199219 205.660156 404.996094 C 205.660156 294.789062 294.789062 205.660156 404.996094 205.660156 Z M 404.996094 205.660156 " fill-opacity="1" fill-rule="nonzero"/></g><path fill="#ffa500" d="M 110.363281 362.65625 C 88.632812 370.308594 66.902344 377.957031 45.183594 385.609375 C 35.367188 389.058594 39.59375 404.765625 49.5 401.273438 C 71.230469 393.625 92.960938 385.972656 114.679688 378.320312 C 124.496094 374.871094 120.269531 359.164062 110.363281 362.65625 Z M 110.363281 362.65625 " fill-opacity="1" fill-rule="nonzero"/><path fill="#ffa500" d="M 93.148438 298.179688 C 77.183594 299.003906 61.214844 299.835938 45.25 300.664062 C 34.824219 301.203125 34.769531 317.460938 45.25 316.914062 C 61.214844 316.089844 77.183594 315.257812 93.148438 314.429688 C 103.570312 313.890625 103.628906 297.632812 93.148438 298.179688 Z M 93.148438 298.179688 " fill-opacity="1" fill-rule="nonzero"/><path fill="#ffa500" d="M 147.570312 183.585938 C 138.457031 174.550781 129.34375 165.527344 120.230469 156.492188 C 112.78125 149.109375 101.289062 160.601562 108.738281 167.984375 C 117.851562 177.019531 126.964844 186.042969 136.078125 195.078125 C 143.527344 202.460938 155.019531 190.96875 147.570312 183.585938 Z M 147.570312 183.585938 " fill-opacity="1" fill-rule="nonzero"/><path fill="#ffa500" d="M 198.421875 151.976562 C 192.066406 140.832031 185.714844 129.683594 179.351562 118.542969 C 174.164062 109.449219 160.117188 117.628906 165.324219 126.746094 C 171.679688 137.886719 178.03125 149.035156 184.394531 160.179688 C 189.582031 169.273438 203.628906 161.089844 198.421875 151.976562 Z M 198.421875 151.976562 " fill-opacity="1" fill-rule="nonzero"/><path fill="#ffa500" d="M 105.851562 236.769531 C 84.148438 226.246094 62.441406 215.730469 40.738281 205.210938 C 31.351562 200.660156 23.109375 214.671875 32.535156 219.238281 C 54.238281 229.765625 75.945312 240.28125 97.648438 250.800781 C 107.035156 255.347656 115.277344 241.339844 105.851562 236.769531 Z M 105.851562 236.769531 " fill-opacity="1" fill-rule="nonzero"/><path fill="#ffa500" d="M 252.984375 137.207031 C 248.609375 113.488281 244.238281 89.765625 239.855469 66.054688 C 237.957031 55.757812 222.296875 60.132812 224.191406 70.371094 C 228.5625 94.089844 232.9375 117.808594 237.320312 141.523438 C 239.21875 151.820312 254.878906 147.445312 252.984375 137.207031 Z M 252.984375 137.207031 " fill-opacity="1" fill-rule="nonzero"/><g clip-path="url(#333fc920d6)"><path fill="#ffa500" d="M 404.996094 118.644531 C 247.003906 118.644531 118.644531 247.003906 118.644531 404.996094 C 118.644531 562.988281 247.003906 691.351562 404.996094 691.351562 C 562.988281 691.351562 691.351562 562.988281 691.351562 404.996094 C 691.351562 247.003906 562.988281 118.644531 404.996094 118.644531 Z M 404.996094 131.09375 C 556.429688 131.09375 678.902344 253.566406 678.902344 404.996094 C 678.902344 556.429688 556.429688 678.902344 404.996094 678.902344 C 253.566406 678.902344 131.09375 556.429688 131.09375 404.996094 C 131.09375 253.566406 253.566406 131.09375 404.996094 131.09375 Z M 404.996094 131.09375 " fill-opacity="1" fill-rule="nonzero"/></g><g clip-path="url(#2bb7b93a45)"><path fill="#ffa500" d="M 404.996094 204.679688 C 294.472656 204.679688 204.679688 294.472656 204.679688 404.996094 C 204.679688 515.515625 294.472656 605.308594 404.996094 605.308594 C 515.515625 605.308594 605.308594 515.515625 605.308594 404.996094 C 605.308594 294.472656 515.515625 204.679688 404.996094 204.679688 Z M 404.996094 213.390625 C 510.925781 213.390625 596.597656 299.0625 596.597656 404.996094 C 596.597656 510.925781 510.925781 596.597656 404.996094 596.597656 C 299.0625 596.597656 213.390625 510.925781 213.390625 404.996094 C 213.390625 299.0625 299.0625 213.390625 404.996094 213.390625 Z M 404.996094 213.390625 " fill-opacity="1" fill-rule="nonzero"/></g></svg>