<svg xmlns="http://www.w3.org/2000/svg" xmlns:xlink="http://www.w3.org/1999/xlink" width="1080" zoomAndPan="magnify" viewBox="0 0 810 809.999993" height="1080" preserveAspectRatio="xMidYMid meet" version="1.0"><path fill="#ffa500" d="M 343.148438 204.851562 C 341.746094 202.640625 340.347656 200.425781 338.949219 198.210938 C 338.390625 197.328125 337.8125 196.34375 337.972656 195.3125 C 338.171875 194.050781 339.378906 193.242188 340.476562 192.597656 C 350.824219 186.515625 361.449219 180.90625 372.304688 175.796875 C 373.328125 175.316406 374.566406 174.847656 375.53125 175.4375 C 376.097656 175.785156 376.410156 176.417969 376.691406 177.019531 C 377.980469 179.753906 379.269531 182.488281 380.558594 185.21875 C 380.933594 186.011719 381.300781 186.960938 380.867188 187.71875 C 380.613281 188.160156 380.136719 188.417969 379.6875 188.65625 C 368.71875 194.464844 357.75 200.269531 346.78125 206.078125 C 346.28125 206.34375 345.746094 206.613281 345.179688 206.570312 C 344.261719 206.496094 343.640625 205.632812 343.148438 204.851562 Z M 343.148438 204.851562 " fill-opacity="1" fill-rule="nonzero"/><path fill="#ffa500" d="M 803.226562 112.269531 C 794.746094 120.234375 786.265625 128.199219 777.785156 136.164062 C 775.351562 138.449219 772.84375 140.785156 769.757812 142.074219 C 766.675781 143.363281 762.84375 143.40625 760.238281 141.308594 C 757.105469 138.78125 756.738281 134.230469 756.617188 130.207031 C 756.445312 124.503906 756.273438 118.804688 756.105469 113.105469 C 756.011719 109.96875 751.695312 109.234375 748.566406 109.484375 C 738.417969 110.289062 728.273438 111.097656 718.125 111.902344 C 715.699219 112.097656 713.523438 110.113281 712.675781 107.828125 C 711.832031 105.542969 712.003906 103.027344 712.191406 100.597656 C 712.261719 99.695312 712.359375 98.726562 712.957031 98.046875 C 713.644531 97.265625 714.78125 97.105469 715.816406 97 C 727.105469 95.847656 738.453125 95.21875 749.800781 95.121094 C 754.859375 95.078125 756.496094 88.152344 755.527344 83.1875 C 754.554688 78.226562 752.804688 72.367188 756.253906 68.664062 C 760.242188 64.378906 767.347656 66.980469 772.363281 70 C 783.269531 76.566406 793.664062 83.992188 803.414062 92.179688 C 806.25 94.558594 809.230469 97.378906 809.574219 101.066406 C 809.988281 105.5 806.472656 109.21875 803.226562 112.269531 Z M 803.226562 112.269531 " fill-opacity="1" fill-rule="nonzero"/><path fill="#ffa500" d="M 601.089844 110.898438 C 601.871094 113.996094 602.648438 117.097656 603.429688 120.195312 C 603.617188 120.941406 603.769531 121.832031 603.25 122.394531 C 602.902344 122.769531 602.355469 122.875 601.847656 122.957031 C 588.007812 125.210938 574.164062 127.46875 560.320312 129.726562 C 559.398438 129.875 558.363281 130 557.609375 129.449219 C 557.027344 129.023438 556.765625 128.292969 556.542969 127.605469 C 555.546875 124.511719 554.757812 121.355469 554.175781 118.160156 C 554.0625 117.535156 553.960938 116.871094 554.210938 116.289062 C 554.652344 115.265625 555.929688 114.960938 557.027344 114.789062 C 570.605469 112.65625 584.1875 110.519531 597.765625 108.386719 C 598.375 108.289062 599.023438 108.199219 599.589844 108.445312 C 600.5 108.84375 600.847656 109.933594 601.089844 110.898438 Z M 601.089844 110.898438 " fill-opacity="1" fill-rule="nonzero"/><path fill="#ffa500" d="M 78.824219 470.710938 C 76.515625 469.351562 74.207031 467.996094 71.898438 466.640625 C 70.921875 466.070312 69.847656 465.355469 69.675781 464.234375 C 69.546875 463.417969 69.953125 462.625 70.347656 461.898438 C 75.53125 452.320312 80.800781 442.789062 86.160156 433.308594 C 86.777344 432.21875 87.582031 431 88.828125 430.871094 C 89.605469 430.792969 90.34375 431.171875 91.03125 431.535156 C 93.207031 432.695312 95.378906 433.855469 97.550781 435.015625 C 98.90625 435.738281 100.445312 436.753906 100.445312 438.289062 C 100.445312 439.011719 100.082031 439.683594 99.726562 440.316406 C 94.394531 449.820312 89.066406 459.324219 83.738281 468.828125 C 83.054688 470.046875 82.105469 471.429688 80.707031 471.414062 C 80.03125 471.40625 79.410156 471.050781 78.824219 470.710938 Z M 78.824219 470.710938 " fill-opacity="1" fill-rule="nonzero"/><path fill="#ffa500" d="M 276.390625 245.679688 C 274.589844 243.578125 272.789062 241.476562 270.988281 239.378906 C 270.574219 238.894531 270.136719 238.347656 270.164062 237.710938 C 270.195312 236.933594 270.898438 236.375 271.539062 235.929688 C 280.492188 229.695312 289.445312 223.460938 298.394531 217.222656 C 299.214844 216.652344 300.085938 216.0625 301.082031 215.996094 C 303.105469 215.859375 304.5625 217.828125 305.605469 219.566406 C 306.710938 221.40625 307.816406 223.246094 308.921875 225.089844 C 309.394531 225.875 309.882812 226.796875 309.582031 227.660156 C 309.367188 228.285156 308.796875 228.703125 308.253906 229.078125 C 299.878906 234.925781 291.5 240.773438 283.121094 246.621094 C 282.09375 247.339844 280.953125 248.089844 279.707031 247.976562 C 278.332031 247.851562 277.289062 246.726562 276.390625 245.679688 Z M 276.390625 245.679688 " fill-opacity="1" fill-rule="nonzero"/><path fill="#ffa500" d="M 8.273438 636.46875 C 11.574219 636.925781 14.835938 637.667969 18.011719 638.683594 C 18.546875 638.855469 19.113281 639.058594 19.457031 639.503906 C 19.914062 640.105469 19.828125 640.945312 19.714844 641.695312 C 18.21875 651.800781 16.722656 661.90625 15.222656 672.015625 C 15.140625 672.570312 15.042969 673.160156 14.660156 673.574219 C 14.289062 673.976562 13.726562 674.125 13.191406 674.253906 C 9.527344 675.148438 5.859375 676.046875 2.191406 676.941406 C 1.738281 677.050781 1.222656 677.152344 0.835938 676.894531 C 0.351562 676.574219 0.324219 675.886719 0.351562 675.308594 C 0.898438 663.066406 2.4375 650.867188 4.949219 638.875 C 5.117188 638.070312 5.34375 637.1875 6.023438 636.726562 C 6.660156 636.289062 7.507812 636.363281 8.273438 636.46875 Z M 8.273438 636.46875 " fill-opacity="1" fill-rule="nonzero"/><path fill="#ffa500" d="M 448.804688 150.195312 C 449.753906 153.144531 450.703125 156.097656 451.652344 159.050781 C 441.269531 163.0625 430.847656 166.972656 420.386719 170.785156 C 419.203125 171.214844 418.128906 169.964844 417.480469 168.882812 C 416.183594 166.710938 414.886719 164.539062 413.589844 162.371094 C 412.824219 161.085938 412.039062 159.492188 412.738281 158.167969 C 413.242188 157.214844 414.34375 156.773438 415.359375 156.410156 C 424.503906 153.101562 433.648438 149.792969 442.792969 146.484375 C 443.679688 146.164062 444.621094 145.835938 445.546875 146.019531 C 447.367188 146.375 448.238281 148.425781 448.804688 150.195312 Z M 448.804688 150.195312 " fill-opacity="1" fill-rule="nonzero"/><path fill="#ffa500" d="M 237.480469 262.605469 C 238.441406 262.835938 239.183594 263.578125 239.871094 264.289062 C 241.5 265.976562 243.132812 267.667969 244.765625 269.355469 C 245.953125 270.585938 247.125 272.683594 245.804688 273.765625 C 237.527344 280.542969 229.25 287.320312 220.976562 294.09375 C 220.332031 294.621094 219.625 295.171875 218.792969 295.203125 C 217.660156 295.242188 216.75 294.3125 216.003906 293.457031 C 214.15625 291.335938 212.304688 289.21875 210.457031 287.097656 C 209.867188 286.421875 209.238281 285.582031 209.472656 284.71875 C 209.617188 284.183594 210.0625 283.796875 210.484375 283.441406 C 218.039062 277.089844 225.589844 270.738281 233.144531 264.390625 C 234.386719 263.34375 235.898438 262.226562 237.480469 262.605469 Z M 237.480469 262.605469 " fill-opacity="1" fill-rule="nonzero"/><path fill="#ffa500" d="M 159.777344 339.425781 C 159.078125 338.871094 158.332031 338.253906 158.128906 337.382812 C 157.835938 336.148438 158.734375 334.980469 159.574219 334.03125 C 165.472656 327.375 171.527344 320.851562 177.726562 314.476562 C 178.417969 313.761719 179.28125 312.992188 180.261719 313.15625 C 180.980469 313.277344 181.507812 313.871094 181.976562 314.429688 C 184.546875 317.492188 187.121094 320.554688 189.695312 323.617188 C 183.144531 330.601562 176.597656 337.589844 170.050781 344.578125 C 169.65625 344.996094 169.226562 345.4375 168.664062 345.558594 C 167.847656 345.734375 167.070312 345.1875 166.414062 344.667969 C 164.203125 342.921875 161.988281 341.171875 159.777344 339.425781 Z M 159.777344 339.425781 " fill-opacity="1" fill-rule="nonzero"/><path fill="#ffa500" d="M 122.285156 403.238281 C 121.257812 403.265625 120.316406 402.699219 119.441406 402.15625 C 117.058594 400.667969 114.675781 399.179688 112.292969 397.6875 C 111.671875 397.300781 110.992188 396.824219 110.902344 396.097656 C 110.828125 395.527344 111.15625 394.992188 111.472656 394.507812 C 117.078125 385.941406 123.121094 377.660156 129.574219 369.710938 C 130.0625 369.105469 130.628906 368.460938 131.398438 368.335938 C 132.289062 368.191406 133.109375 368.792969 133.8125 369.359375 C 135.699219 370.878906 137.589844 372.398438 139.476562 373.914062 C 140.398438 374.660156 141.386719 375.507812 141.601562 376.675781 C 141.84375 377.984375 141.03125 379.234375 140.261719 380.320312 C 135.519531 387.011719 130.777344 393.707031 126.035156 400.402344 C 125.09375 401.730469 123.914062 403.191406 122.285156 403.238281 Z M 122.285156 403.238281 " fill-opacity="1" fill-rule="nonzero"/><path fill="#ffa500" d="M 47.894531 537.183594 C 45.425781 535.992188 42.953125 534.800781 40.484375 533.609375 C 39.789062 533.277344 39.0625 532.914062 38.640625 532.269531 C 37.863281 531.089844 38.410156 529.527344 38.96875 528.234375 C 42.34375 520.460938 45.714844 512.683594 49.085938 504.90625 C 49.753906 503.371094 50.773438 501.589844 52.445312 501.574219 C 53.289062 501.566406 54.054688 502.042969 54.765625 502.5 C 57.09375 504.007812 59.421875 505.511719 61.753906 507.019531 C 62.382812 507.425781 63.046875 507.871094 63.332031 508.5625 C 63.714844 509.488281 63.3125 510.527344 62.914062 511.445312 C 59.441406 519.421875 55.964844 527.398438 52.488281 535.378906 C 52.070312 536.339844 51.539062 537.40625 50.539062 537.71875 C 49.660156 537.992188 48.726562 537.585938 47.894531 537.183594 Z M 47.894531 537.183594 " fill-opacity="1" fill-rule="nonzero"/><path fill="#ffa500" d="M 490.117188 146.179688 C 489.546875 145.863281 489.246094 145.222656 488.988281 144.625 C 488.046875 142.472656 487.105469 140.316406 486.164062 138.164062 C 485.707031 137.109375 485.234375 135.984375 485.402344 134.84375 C 485.75 132.507812 488.433594 131.425781 490.703125 130.78125 C 497.234375 128.933594 503.761719 127.085938 510.289062 125.234375 C 511.488281 124.898438 512.828125 124.570312 513.921875 125.160156 C 515.109375 125.800781 515.539062 127.261719 515.859375 128.570312 C 516.460938 131.019531 517.0625 133.46875 517.660156 135.917969 C 517.84375 136.667969 518.023438 137.480469 517.730469 138.195312 C 517.304688 139.226562 516.09375 139.636719 515.019531 139.933594 C 507.476562 142.007812 499.933594 144.082031 492.394531 146.15625 C 491.640625 146.363281 490.796875 146.5625 490.117188 146.179688 Z M 490.117188 146.179688 " fill-opacity="1" fill-rule="nonzero"/><path fill="#ffa500" d="M 641.90625 113.148438 C 641.410156 110.828125 640.914062 108.507812 640.417969 106.1875 C 640.179688 105.078125 640.03125 103.707031 640.925781 103.011719 C 641.355469 102.675781 641.921875 102.597656 642.464844 102.53125 C 650.714844 101.503906 658.988281 100.683594 667.28125 100.070312 C 668.808594 99.957031 670.507812 99.902344 671.683594 100.886719 C 672.832031 101.855469 673.089844 103.496094 673.265625 104.988281 C 673.488281 106.84375 673.707031 108.695312 673.929688 110.550781 C 674.066406 111.710938 674.152344 113.039062 673.351562 113.886719 C 672.699219 114.574219 671.671875 114.707031 670.730469 114.804688 C 662.691406 115.621094 654.652344 116.4375 646.609375 117.253906 C 645.816406 117.335938 644.988281 117.410156 644.246094 117.113281 C 642.761719 116.511719 642.242188 114.714844 641.90625 113.148438 Z M 641.90625 113.148438 " fill-opacity="1" fill-rule="nonzero"/><path fill="#ffa500" d="M 18.464844 741.945312 C 18.0625 742.726562 17.203125 743.144531 16.402344 743.507812 C 14.027344 744.582031 11.546875 745.679688 8.945312 745.582031 C 6.339844 745.484375 3.597656 743.800781 3.210938 741.222656 C 2.242188 734.726562 1.273438 728.234375 0.304688 721.738281 C 0.113281 720.4375 -0.03125 718.953125 0.828125 717.957031 C 1.421875 717.269531 2.351562 717 3.230469 716.765625 C 5.328125 716.199219 7.425781 715.636719 9.523438 715.070312 C 11.160156 714.628906 13.230469 714.324219 14.261719 715.667969 C 14.6875 716.222656 14.816406 716.949219 14.933594 717.640625 C 16.148438 724.925781 17.363281 732.207031 18.578125 739.492188 C 18.714844 740.3125 18.84375 741.203125 18.464844 741.945312 Z M 18.464844 741.945312 " fill-opacity="1" fill-rule="nonzero"/><path fill="#ffa500" d="M 26.5 570.925781 C 29.234375 572.207031 31.96875 573.488281 34.703125 574.765625 C 35.308594 575.050781 35.953125 575.367188 36.289062 575.945312 C 36.738281 576.71875 36.496094 577.691406 36.246094 578.550781 C 34.351562 585.03125 32.453125 591.511719 30.558594 597.992188 C 30.378906 598.613281 30.175781 599.261719 29.699219 599.695312 C 28.859375 600.449219 27.5625 600.234375 26.464844 599.972656 C 23.984375 599.382812 21.503906 598.792969 19.023438 598.203125 C 17.851562 597.921875 16.546875 597.550781 15.957031 596.5 C 15.386719 595.488281 15.699219 594.222656 16.027344 593.105469 C 18.046875 586.21875 20.113281 579.347656 22.230469 572.492188 C 22.449219 571.785156 22.707031 571.023438 23.320312 570.613281 C 24.25 569.992188 25.488281 570.453125 26.5 570.925781 Z M 26.5 570.925781 " fill-opacity="1" fill-rule="nonzero"/><path fill="#ffa500" d="M 343.148438 204.851562 C 341.746094 202.640625 340.347656 200.425781 338.949219 198.210938 C 338.390625 197.328125 337.8125 196.34375 337.972656 195.3125 C 338.171875 194.050781 339.378906 193.242188 340.476562 192.597656 C 350.824219 186.515625 361.449219 180.90625 372.304688 175.796875 C 373.328125 175.316406 374.566406 174.847656 375.53125 175.4375 C 376.097656 175.785156 376.410156 176.417969 376.691406 177.019531 C 377.980469 179.753906 379.269531 182.488281 380.558594 185.21875 C 380.933594 186.011719 381.300781 186.960938 380.867188 187.71875 C 380.613281 188.160156 380.136719 188.417969 379.6875 188.65625 C 368.71875 194.464844 357.75 200.269531 346.78125 206.078125 C 346.28125 206.34375 345.746094 206.613281 345.179688 206.570312 C 344.261719 206.496094 343.640625 205.632812 343.148438 204.851562 Z M 343.148438 204.851562 " fill-opacity="1" fill-rule="nonzero"/><path fill="#ffa500" d="M 803.226562 112.269531 C 794.746094 120.234375 786.265625 128.199219 777.785156 136.164062 C 775.351562 138.449219 772.84375 140.785156 769.757812 142.074219 C 766.675781 143.363281 762.84375 143.40625 760.238281 141.308594 C 757.105469 138.78125 756.738281 134.230469 756.617188 130.207031 C 756.445312 124.503906 756.273438 118.804688 756.105469 113.105469 C 756.011719 109.96875 751.695312 109.234375 748.566406 109.484375 C 738.417969 110.289062 728.273438 111.097656 718.125 111.902344 C 715.699219 112.097656 713.523438 110.113281 712.675781 107.828125 C 711.832031 105.542969 712.003906 103.027344 712.191406 100.597656 C 712.261719 99.695312 712.359375 98.726562 712.957031 98.046875 C 713.644531 97.265625 714.78125 97.105469 715.816406 97 C 727.105469 95.847656 738.453125 95.21875 749.800781 95.121094 C 754.859375 95.078125 756.496094 88.152344 755.527344 83.1875 C 754.554688 78.226562 752.804688 72.367188 756.253906 68.664062 C 760.242188 64.378906 767.347656 66.980469 772.363281 70 C 783.269531 76.566406 793.664062 83.992188 803.414062 92.179688 C 806.25 94.558594 809.230469 97.378906 809.574219 101.066406 C 809.988281 105.5 806.472656 109.21875 803.226562 112.269531 Z M 803.226562 112.269531 " fill-opacity="1" fill-rule="nonzero"/><path fill="#ffa500" d="M 601.089844 110.898438 C 601.871094 113.996094 602.648438 117.097656 603.429688 120.195312 C 603.617188 120.941406 603.769531 121.832031 603.25 122.394531 C 602.902344 122.769531 602.355469 122.875 601.847656 122.957031 C 588.007812 125.210938 574.164062 127.46875 560.320312 129.726562 C 559.398438 129.875 558.363281 130 557.609375 129.449219 C 557.027344 129.023438 556.765625 128.292969 556.542969 127.605469 C 555.546875 124.511719 554.757812 121.355469 554.175781 118.160156 C 554.0625 117.535156 553.960938 116.871094 554.210938 116.289062 C 554.652344 115.265625 555.929688 114.960938 557.027344 114.789062 C 570.605469 112.65625 584.1875 110.519531 597.765625 108.386719 C 598.375 108.289062 599.023438 108.199219 599.589844 108.445312 C 600.5 108.84375 600.847656 109.933594 601.089844 110.898438 Z M 601.089844 110.898438 " fill-opacity="1" fill-rule="nonzero"/><path fill="#ffa500" d="M 78.824219 470.710938 C 76.515625 469.351562 74.207031 467.996094 71.898438 466.640625 C 70.921875 466.070312 69.847656 465.355469 69.675781 464.234375 C 69.546875 463.417969 69.953125 462.625 70.347656 461.898438 C 75.53125 452.320312 80.800781 442.789062 86.160156 433.308594 C 86.777344 432.21875 87.582031 431 88.828125 430.871094 C 89.605469 430.792969 90.34375 431.171875 91.03125 431.535156 C 93.207031 432.695312 95.378906 433.855469 97.550781 435.015625 C 98.90625 435.738281 100.445312 436.753906 100.445312 438.289062 C 100.445312 439.011719 100.082031 439.683594 99.726562 440.316406 C 94.394531 449.820312 89.066406 459.324219 83.738281 468.828125 C 83.054688 470.046875 82.105469 471.429688 80.707031 471.414062 C 80.03125 471.40625 79.410156 471.050781 78.824219 470.710938 Z M 78.824219 470.710938 " fill-opacity="1" fill-rule="nonzero"/><path fill="#ffa500" d="M 276.390625 245.679688 C 274.589844 243.578125 272.789062 241.476562 270.988281 239.378906 C 270.574219 238.894531 270.136719 238.347656 270.164062 237.710938 C 270.195312 236.933594 270.898438 236.375 271.539062 235.929688 C 280.492188 229.695312 289.445312 223.460938 298.394531 217.222656 C 299.214844 216.652344 300.085938 216.0625 301.082031 215.996094 C 303.105469 215.859375 304.5625 217.828125 305.605469 219.566406 C 306.710938 221.40625 307.816406 223.246094 308.921875 225.089844 C 309.394531 225.875 309.882812 226.796875 309.582031 227.660156 C 309.367188 228.285156 308.796875 228.703125 308.253906 229.078125 C 299.878906 234.925781 291.5 240.773438 283.121094 246.621094 C 282.09375 247.339844 280.953125 248.089844 279.707031 247.976562 C 278.332031 247.851562 277.289062 246.726562 276.390625 245.679688 Z M 276.390625 245.679688 " fill-opacity="1" fill-rule="nonzero"/><path fill="#ffa500" d="M 8.273438 636.46875 C 11.574219 636.925781 14.835938 637.667969 18.011719 638.683594 C 18.546875 638.855469 19.113281 639.058594 19.457031 639.503906 C 19.914062 640.105469 19.828125 640.945312 19.714844 641.695312 C 18.21875 651.800781 16.722656 661.90625 15.222656 672.015625 C 15.140625 672.570312 15.042969 673.160156 14.660156 673.574219 C 14.289062 673.976562 13.726562 674.125 13.191406 674.253906 C 9.527344 675.148438 5.859375 676.046875 2.191406 676.941406 C 1.738281 677.050781 1.222656 677.152344 0.835938 676.894531 C 0.351562 676.574219 0.324219 675.886719 0.351562 675.308594 C 0.898438 663.066406 2.4375 650.867188 4.949219 638.875 C 5.117188 638.070312 5.34375 637.1875 6.023438 636.726562 C 6.660156 636.289062 7.507812 636.363281 8.273438 636.46875 Z M 8.273438 636.46875 " fill-opacity="1" fill-rule="nonzero"/><path fill="#ffa500" d="M 448.804688 150.195312 C 449.753906 153.144531 450.703125 156.097656 451.652344 159.050781 C 441.269531 163.0625 430.847656 166.972656 420.386719 170.785156 C 419.203125 171.214844 418.128906 169.964844 417.480469 168.882812 C 416.183594 166.710938 414.886719 164.539062 413.589844 162.371094 C 412.824219 161.085938 412.039062 159.492188 412.738281 158.167969 C 413.242188 157.214844 414.34375 156.773438 415.359375 156.410156 C 424.503906 153.101562 433.648438 149.792969 442.792969 146.484375 C 443.679688 146.164062 444.621094 145.835938 445.546875 146.019531 C 447.367188 146.375 448.238281 148.425781 448.804688 150.195312 Z M 448.804688 150.195312 " fill-opacity="1" fill-rule="nonzero"/><path fill="#ffa500" d="M 237.480469 262.605469 C 238.441406 262.835938 239.183594 263.578125 239.871094 264.289062 C 241.5 265.976562 243.132812 267.667969 244.765625 269.355469 C 245.953125 270.585938 247.125 272.683594 245.804688 273.765625 C 237.527344 280.542969 229.25 287.320312 220.976562 294.09375 C 220.332031 294.621094 219.625 295.171875 218.792969 295.203125 C 217.660156 295.242188 216.75 294.3125 216.003906 293.457031 C 214.15625 291.335938 212.304688 289.21875 210.457031 287.097656 C 209.867188 286.421875 209.238281 285.582031 209.472656 284.71875 C 209.617188 284.183594 210.0625 283.796875 210.484375 283.441406 C 218.039062 277.089844 225.589844 270.738281 233.144531 264.390625 C 234.386719 263.34375 235.898438 262.226562 237.480469 262.605469 Z M 237.480469 262.605469 " fill-opacity="1" fill-rule="nonzero"/><path fill="#ffa500" d="M 159.777344 339.425781 C 159.078125 338.871094 158.332031 338.253906 158.128906 337.382812 C 157.835938 336.148438 158.734375 334.980469 159.574219 334.03125 C 165.472656 327.375 171.527344 320.851562 177.726562 314.476562 C 178.417969 313.761719 179.28125 312.992188 180.261719 313.15625 C 180.980469 313.277344 181.507812 313.871094 181.976562 314.429688 C 184.546875 317.492188 187.121094 320.554688 189.695312 323.617188 C 183.144531 330.601562 176.597656 337.589844 170.050781 344.578125 C 169.65625 344.996094 169.226562 345.4375 168.664062 345.558594 C 167.847656 345.734375 167.070312 345.1875 166.414062 344.667969 C 164.203125 342.921875 161.988281 341.171875 159.777344 339.425781 Z M 159.777344 339.425781 " fill-opacity="1" fill-rule="nonzero"/><path fill="#ffa500" d="M 122.285156 403.238281 C 121.257812 403.265625 120.316406 402.699219 119.441406 402.15625 C 117.058594 400.667969 114.675781 399.179688 112.292969 397.6875 C 111.671875 397.300781 110.992188 396.824219 110.902344 396.097656 C 110.828125 395.527344 111.15625 394.992188 111.472656 394.507812 C 117.078125 385.941406 123.121094 377.660156 129.574219 369.710938 C 130.0625 369.105469 130.628906 368.460938 131.398438 368.335938 C 132.289062 368.191406 133.109375 368.792969 133.8125 369.359375 C 135.699219 370.878906 137.589844 372.398438 139.476562 373.914062 C 140.398438 374.660156 141.386719 375.507812 141.601562 376.675781 C 141.84375 377.984375 141.03125 379.234375 140.261719 380.320312 C 135.519531 387.011719 130.777344 393.707031 126.035156 400.402344 C 125.09375 401.730469 123.914062 403.191406 122.285156 403.238281 Z M 122.285156 403.238281 " fill-opacity="1" fill-rule="nonzero"/><path fill="#ffa500" d="M 47.894531 537.183594 C 45.425781 535.992188 42.953125 534.800781 40.484375 533.609375 C 39.789062 533.277344 39.0625 532.914062 38.640625 532.269531 C 37.863281 531.089844 38.410156 529.527344 38.96875 528.234375 C 42.34375 520.460938 45.714844 512.683594 49.085938 504.90625 C 49.753906 503.371094 50.773438 501.589844 52.445312 501.574219 C 53.289062 501.566406 54.054688 502.042969 54.765625 502.5 C 57.09375 504.007812 59.421875 505.511719 61.753906 507.019531 C 62.382812 507.425781 63.046875 507.871094 63.332031 508.5625 C 63.714844 509.488281 63.3125 510.527344 62.914062 511.445312 C 59.441406 519.421875 55.964844 527.398438 52.488281 535.378906 C 52.070312 536.339844 51.539062 537.40625 50.539062 537.71875 C 49.660156 537.992188 48.726562 537.585938 47.894531 537.183594 Z M 47.894531 537.183594 " fill-opacity="1" fill-rule="nonzero"/><path fill="#ffa500" d="M 490.117188 146.179688 C 489.546875 145.863281 489.246094 145.222656 488.988281 144.625 C 488.046875 142.472656 487.105469 140.316406 486.164062 138.164062 C 485.707031 137.109375 485.234375 135.984375 485.402344 134.84375 C 485.75 132.507812 488.433594 131.425781 490.703125 130.78125 C 497.234375 128.933594 503.761719 127.085938 510.289062 125.234375 C 511.488281 124.898438 512.828125 124.570312 513.921875 125.160156 C 515.109375 125.800781 515.539062 127.261719 515.859375 128.570312 C 516.460938 131.019531 517.0625 133.46875 517.660156 135.917969 C 517.84375 136.667969 518.023438 137.480469 517.730469 138.195312 C 517.304688 139.226562 516.09375 139.636719 515.019531 139.933594 C 507.476562 142.007812 499.933594 144.082031 492.394531 146.15625 C 491.640625 146.363281 490.796875 146.5625 490.117188 146.179688 Z M 490.117188 146.179688 " fill-opacity="1" fill-rule="nonzero"/><path fill="#ffa500" d="M 641.90625 113.148438 C 641.410156 110.828125 640.914062 108.507812 640.417969 106.1875 C 640.179688 105.078125 640.03125 103.707031 640.925781 103.011719 C 641.355469 102.675781 641.921875 102.597656 642.464844 102.53125 C 650.714844 101.503906 658.988281 100.683594 667.28125 100.070312 C 668.808594 99.957031 670.507812 99.902344 671.683594 100.886719 C 672.832031 101.855469 673.089844 103.496094 673.265625 104.988281 C 673.488281 106.84375 673.707031 108.695312 673.929688 110.550781 C 674.066406 111.710938 674.152344 113.039062 673.351562 113.886719 C 672.699219 114.574219 671.671875 114.707031 670.730469 114.804688 C 662.691406 115.621094 654.652344 116.4375 646.609375 117.253906 C 645.816406 117.335938 644.988281 117.410156 644.246094 117.113281 C 642.761719 116.511719 642.242188 114.714844 641.90625 113.148438 Z M 641.90625 113.148438 " fill-opacity="1" fill-rule="nonzero"/><path fill="#ffa500" d="M 18.464844 741.945312 C 18.0625 742.726562 17.203125 743.144531 16.402344 743.507812 C 14.027344 744.582031 11.546875 745.679688 8.945312 745.582031 C 6.339844 745.484375 3.597656 743.800781 3.210938 741.222656 C 2.242188 734.726562 1.273438 728.234375 0.304688 721.738281 C 0.113281 720.4375 -0.03125 718.953125 0.828125 717.957031 C 1.421875 717.269531 2.351562 717 3.230469 716.765625 C 5.328125 716.199219 7.425781 715.636719 9.523438 715.070312 C 11.160156 714.628906 13.230469 714.324219 14.261719 715.667969 C 14.6875 716.222656 14.816406 716.949219 14.933594 717.640625 C 16.148438 724.925781 17.363281 732.207031 18.578125 739.492188 C 18.714844 740.3125 18.84375 741.203125 18.464844 741.945312 Z M 18.464844 741.945312 " fill-opacity="1" fill-rule="nonzero"/><path fill="#ffa500" d="M 26.5 570.925781 C 29.234375 572.207031 31.96875 573.488281 34.703125 574.765625 C 35.308594 575.050781 35.953125 575.367188 36.289062 575.945312 C 36.738281 576.71875 36.496094 577.691406 36.246094 578.550781 C 34.351562 585.03125 32.453125 591.511719 30.558594 597.992188 C 30.378906 598.613281 30.175781 599.261719 29.699219 599.695312 C 28.859375 600.449219 27.5625 600.234375 26.464844 599.972656 C 23.984375 599.382812 21.503906 598.792969 19.023438 598.203125 C 17.851562 597.921875 16.546875 597.550781 15.957031 596.5 C 15.386719 595.488281 15.699219 594.222656 16.027344 593.105469 C 18.046875 586.21875 20.113281 579.347656 22.230469 572.492188 C 22.449219 571.785156 22.707031 571.023438 23.320312 570.613281 C 24.25 569.992188 25.488281 570.453125 26.5 570.925781 Z M 26.5 570.925781 " fill-opacity="1" fill-rule="nonzero"/></svg>