<svg xmlns="http://www.w3.org/2000/svg" xmlns:xlink="http://www.w3.org/1999/xlink" width="1080" zoomAndPan="magnify" viewBox="0 0 810 809.999993" height="1080" preserveAspectRatio="xMidYMid meet" version="1.0"><defs><clipPath id="055f314d3c"><path d="M 678 121 L 787.996094 121 L 787.996094 208 L 678 208 Z M 678 121 " clip-rule="nonzero"/></clipPath><clipPath id="4ea8a24a3d"><path d="M 678 121 L 787.996094 121 L 787.996094 208 L 678 208 Z M 678 121 " clip-rule="nonzero"/></clipPath></defs><path fill="#ffa500" d="M 264.652344 276.414062 C 263.082031 273.929688 261.511719 271.445312 259.941406 268.964844 C 259.316406 267.972656 258.667969 266.867188 258.847656 265.710938 C 259.070312 264.296875 260.425781 263.390625 261.65625 262.664062 C 273.261719 255.84375 285.179688 249.550781 297.359375 243.820312 C 298.503906 243.28125 299.894531 242.753906 300.976562 243.417969 C 301.609375 243.808594 301.960938 244.519531 302.277344 245.191406 C 303.722656 248.257812 305.171875 251.324219 306.617188 254.390625 C 307.035156 255.277344 307.449219 256.34375 306.960938 257.191406 C 306.675781 257.6875 306.144531 257.980469 305.640625 258.246094 C 293.335938 264.761719 281.03125 271.273438 268.726562 277.785156 C 268.164062 278.082031 267.566406 278.390625 266.933594 278.335938 C 265.902344 278.253906 265.203125 277.285156 264.652344 276.414062 Z M 264.652344 276.414062 " fill-opacity="1" fill-rule="nonzero"/><g clip-path="url(#055f314d3c)"><path fill="#ffa500" d="M 780.71875 172.5625 C 771.203125 181.496094 761.691406 190.429688 752.179688 199.363281 C 749.449219 201.929688 746.632812 204.550781 743.175781 205.996094 C 739.714844 207.441406 735.417969 207.488281 732.5 205.136719 C 728.984375 202.300781 728.570312 197.195312 728.433594 192.683594 C 728.242188 186.289062 728.050781 179.894531 727.859375 173.5 C 727.753906 169.980469 722.914062 169.15625 719.40625 169.4375 C 708.023438 170.339844 696.640625 171.246094 685.261719 172.152344 C 682.535156 172.367188 680.097656 170.140625 679.148438 167.582031 C 678.199219 165.019531 678.394531 162.195312 678.601562 159.46875 C 678.679688 158.457031 678.789062 157.371094 679.460938 156.609375 C 680.230469 155.730469 681.507812 155.550781 682.667969 155.433594 C 695.335938 154.140625 708.058594 153.4375 720.792969 153.328125 C 726.464844 153.28125 728.300781 145.507812 727.210938 139.941406 C 726.121094 134.375 724.160156 127.804688 728.027344 123.652344 C 732.5 118.847656 740.46875 121.761719 746.097656 125.148438 C 758.332031 132.515625 769.992188 140.84375 780.929688 150.027344 C 784.109375 152.699219 787.453125 155.859375 787.839844 159.996094 C 788.304688 164.96875 784.359375 169.140625 780.71875 172.5625 Z M 780.71875 172.5625 " fill-opacity="1" fill-rule="nonzero"/></g><path fill="#ffa500" d="M 553.980469 171.023438 C 554.855469 174.5 555.730469 177.976562 556.605469 181.453125 C 556.816406 182.289062 556.988281 183.285156 556.40625 183.917969 C 556.015625 184.34375 555.402344 184.457031 554.835938 184.550781 C 539.308594 187.082031 523.78125 189.613281 508.253906 192.144531 C 507.21875 192.3125 506.054688 192.453125 505.210938 191.832031 C 504.558594 191.355469 504.261719 190.539062 504.015625 189.765625 C 502.898438 186.296875 502.011719 182.753906 501.359375 179.167969 C 501.230469 178.46875 501.117188 177.722656 501.398438 177.070312 C 501.894531 175.925781 503.324219 175.582031 504.558594 175.390625 C 519.789062 172.996094 535.019531 170.601562 550.253906 168.207031 C 550.9375 168.097656 551.664062 167.996094 552.300781 168.273438 C 553.324219 168.71875 553.710938 169.941406 553.980469 171.023438 Z M 553.980469 171.023438 " fill-opacity="1" fill-rule="nonzero"/><path fill="#ffa500" d="M 189.769531 322.207031 C 187.75 319.851562 185.730469 317.496094 183.710938 315.136719 C 183.246094 314.597656 182.757812 313.980469 182.785156 313.269531 C 182.824219 312.398438 183.613281 311.769531 184.328125 311.273438 C 194.371094 304.277344 204.414062 297.28125 214.453125 290.289062 C 215.371094 289.648438 216.351562 288.988281 217.46875 288.910156 C 219.738281 288.757812 221.371094 290.964844 222.542969 292.914062 C 223.78125 294.980469 225.023438 297.046875 226.261719 299.109375 C 226.792969 299.992188 227.339844 301.027344 227.003906 301.996094 C 226.761719 302.695312 226.121094 303.164062 225.515625 303.585938 C 216.117188 310.148438 206.71875 316.707031 197.320312 323.265625 C 196.167969 324.070312 194.886719 324.910156 193.488281 324.78125 C 191.945312 324.644531 190.777344 323.382812 189.769531 322.207031 Z M 189.769531 322.207031 " fill-opacity="1" fill-rule="nonzero"/><path fill="#ffa500" d="M 383.167969 215.101562 C 384.230469 218.414062 385.296875 221.726562 386.359375 225.035156 C 374.714844 229.535156 363.023438 233.921875 351.289062 238.195312 C 349.960938 238.679688 348.757812 237.277344 348.03125 236.0625 C 346.578125 233.628906 345.121094 231.195312 343.667969 228.761719 C 342.804688 227.316406 341.925781 225.53125 342.710938 224.046875 C 343.277344 222.980469 344.511719 222.484375 345.648438 222.074219 C 355.90625 218.363281 366.164062 214.652344 376.421875 210.941406 C 377.417969 210.582031 378.472656 210.214844 379.511719 210.417969 C 381.554688 210.820312 382.527344 213.117188 383.167969 215.101562 Z M 383.167969 215.101562 " fill-opacity="1" fill-rule="nonzero"/><path fill="#ffa500" d="M 146.125 341.191406 C 147.203125 341.449219 148.035156 342.285156 148.804688 343.082031 C 150.636719 344.976562 152.46875 346.871094 154.300781 348.765625 C 155.632812 350.144531 156.945312 352.496094 155.464844 353.710938 C 146.179688 361.3125 136.894531 368.914062 127.613281 376.515625 C 126.890625 377.105469 126.097656 377.722656 125.167969 377.757812 C 123.890625 377.800781 122.875 376.757812 122.035156 375.796875 C 119.960938 373.421875 117.890625 371.042969 115.816406 368.667969 C 115.15625 367.90625 114.445312 366.964844 114.710938 365.996094 C 114.875 365.398438 115.371094 364.960938 115.847656 364.5625 C 124.316406 357.441406 132.789062 350.316406 141.261719 343.195312 C 142.65625 342.019531 144.351562 340.769531 146.125 341.191406 Z M 146.125 341.191406 " fill-opacity="1" fill-rule="nonzero"/><path fill="#ffa500" d="M 58.96875 427.363281 C 58.183594 426.742188 57.347656 426.046875 57.117188 425.070312 C 56.792969 423.6875 57.800781 422.375 58.742188 421.3125 C 65.359375 413.84375 72.144531 406.527344 79.101562 399.375 C 79.875 398.578125 80.847656 397.710938 81.945312 397.898438 C 82.75 398.03125 83.34375 398.699219 83.867188 399.320312 C 86.753906 402.757812 89.640625 406.191406 92.523438 409.628906 C 85.179688 417.464844 77.835938 425.300781 70.492188 433.140625 C 70.050781 433.609375 69.570312 434.105469 68.9375 434.242188 C 68.019531 434.4375 67.148438 433.824219 66.410156 433.242188 C 63.929688 431.28125 61.449219 429.320312 58.96875 427.363281 Z M 58.96875 427.363281 " fill-opacity="1" fill-rule="nonzero"/><path fill="#ffa500" d="M 16.914062 498.9375 C 15.757812 498.96875 14.703125 498.335938 13.722656 497.722656 C 11.050781 496.054688 8.375 494.382812 5.703125 492.714844 C 5.007812 492.28125 4.246094 491.742188 4.144531 490.929688 C 4.0625 490.289062 4.429688 489.6875 4.785156 489.148438 C 11.070312 479.539062 17.851562 470.25 25.085938 461.332031 C 25.640625 460.652344 26.269531 459.929688 27.132812 459.789062 C 28.132812 459.628906 29.054688 460.300781 29.84375 460.9375 C 31.960938 462.640625 34.078125 464.34375 36.195312 466.046875 C 37.234375 466.882812 38.339844 467.832031 38.582031 469.140625 C 38.851562 470.609375 37.941406 472.011719 37.078125 473.230469 C 31.757812 480.738281 26.4375 488.246094 21.117188 495.757812 C 20.0625 497.246094 18.738281 498.886719 16.914062 498.9375 Z M 16.914062 498.9375 " fill-opacity="1" fill-rule="nonzero"/><path fill="#ffa500" d="M 429.503906 210.601562 C 428.863281 210.246094 428.53125 209.527344 428.238281 208.855469 C 427.183594 206.441406 426.128906 204.023438 425.074219 201.609375 C 424.558594 200.425781 424.027344 199.164062 424.21875 197.886719 C 424.609375 195.265625 427.617188 194.050781 430.164062 193.328125 C 437.488281 191.253906 444.8125 189.179688 452.132812 187.105469 C 453.476562 186.726562 454.980469 186.363281 456.207031 187.023438 C 457.539062 187.742188 458.023438 189.378906 458.382812 190.847656 C 459.054688 193.59375 459.726562 196.339844 460.402344 199.089844 C 460.609375 199.933594 460.808594 200.84375 460.476562 201.644531 C 460 202.800781 458.640625 203.261719 457.4375 203.59375 C 448.976562 205.917969 440.519531 208.246094 432.058594 210.574219 C 431.214844 210.804688 430.269531 211.027344 429.503906 210.601562 Z M 429.503906 210.601562 " fill-opacity="1" fill-rule="nonzero"/><path fill="#ffa500" d="M 599.765625 173.546875 C 599.210938 170.945312 598.652344 168.34375 598.097656 165.742188 C 597.832031 164.496094 597.664062 162.960938 598.664062 162.179688 C 599.148438 161.800781 599.785156 161.714844 600.390625 161.636719 C 609.644531 160.488281 618.925781 159.566406 628.226562 158.878906 C 629.941406 158.75 631.847656 158.691406 633.164062 159.796875 C 634.457031 160.878906 634.742188 162.722656 634.941406 164.394531 C 635.191406 166.476562 635.4375 168.554688 635.6875 170.632812 C 635.839844 171.933594 635.9375 173.425781 635.035156 174.375 C 634.304688 175.144531 633.152344 175.300781 632.097656 175.40625 C 623.078125 176.324219 614.0625 177.238281 605.042969 178.15625 C 604.152344 178.246094 603.222656 178.332031 602.390625 177.996094 C 600.726562 177.320312 600.140625 175.304688 599.765625 173.546875 Z M 599.765625 173.546875 " fill-opacity="1" fill-rule="nonzero"/><path fill="#ffa500" d="M 264.652344 276.414062 C 263.082031 273.929688 261.511719 271.445312 259.941406 268.964844 C 259.316406 267.972656 258.667969 266.867188 258.847656 265.710938 C 259.070312 264.296875 260.425781 263.390625 261.65625 262.664062 C 273.261719 255.84375 285.179688 249.550781 297.359375 243.820312 C 298.503906 243.28125 299.894531 242.753906 300.976562 243.417969 C 301.609375 243.808594 301.960938 244.519531 302.277344 245.191406 C 303.722656 248.257812 305.171875 251.324219 306.617188 254.390625 C 307.035156 255.277344 307.449219 256.34375 306.960938 257.191406 C 306.675781 257.6875 306.144531 257.980469 305.640625 258.246094 C 293.335938 264.761719 281.03125 271.273438 268.726562 277.785156 C 268.164062 278.082031 267.566406 278.390625 266.933594 278.335938 C 265.902344 278.253906 265.203125 277.285156 264.652344 276.414062 Z M 264.652344 276.414062 " fill-opacity="1" fill-rule="nonzero"/><g clip-path="url(#4ea8a24a3d)"><path fill="#ffa500" d="M 780.71875 172.5625 C 771.203125 181.496094 761.691406 190.429688 752.179688 199.363281 C 749.449219 201.929688 746.632812 204.550781 743.175781 205.996094 C 739.714844 207.441406 735.417969 207.488281 732.5 205.136719 C 728.984375 202.300781 728.570312 197.195312 728.433594 192.683594 C 728.242188 186.289062 728.050781 179.894531 727.859375 173.5 C 727.753906 169.980469 722.914062 169.15625 719.40625 169.4375 C 708.023438 170.339844 696.640625 171.246094 685.261719 172.152344 C 682.535156 172.367188 680.097656 170.140625 679.148438 167.582031 C 678.199219 165.019531 678.394531 162.195312 678.601562 159.46875 C 678.679688 158.457031 678.789062 157.371094 679.460938 156.609375 C 680.230469 155.730469 681.507812 155.550781 682.667969 155.433594 C 695.335938 154.140625 708.058594 153.4375 720.792969 153.328125 C 726.464844 153.28125 728.300781 145.507812 727.210938 139.941406 C 726.121094 134.375 724.160156 127.804688 728.027344 123.652344 C 732.5 118.847656 740.46875 121.761719 746.097656 125.148438 C 758.332031 132.515625 769.992188 140.84375 780.929688 150.027344 C 784.109375 152.699219 787.453125 155.859375 787.839844 159.996094 C 788.304688 164.96875 784.359375 169.140625 780.71875 172.5625 Z M 780.71875 172.5625 " fill-opacity="1" fill-rule="nonzero"/></g><path fill="#ffa500" d="M 553.980469 171.023438 C 554.855469 174.5 555.730469 177.976562 556.605469 181.453125 C 556.816406 182.289062 556.988281 183.285156 556.40625 183.917969 C 556.015625 184.34375 555.402344 184.457031 554.835938 184.550781 C 539.308594 187.082031 523.78125 189.613281 508.253906 192.144531 C 507.21875 192.3125 506.054688 192.453125 505.210938 191.832031 C 504.558594 191.355469 504.261719 190.539062 504.015625 189.765625 C 502.898438 186.296875 502.011719 182.753906 501.359375 179.167969 C 501.230469 178.46875 501.117188 177.722656 501.398438 177.070312 C 501.894531 175.925781 503.324219 175.582031 504.558594 175.390625 C 519.789062 172.996094 535.019531 170.601562 550.253906 168.207031 C 550.9375 168.097656 551.664062 167.996094 552.300781 168.273438 C 553.324219 168.71875 553.710938 169.941406 553.980469 171.023438 Z M 553.980469 171.023438 " fill-opacity="1" fill-rule="nonzero"/><path fill="#ffa500" d="M 189.769531 322.207031 C 187.75 319.851562 185.730469 317.496094 183.710938 315.136719 C 183.246094 314.597656 182.757812 313.980469 182.785156 313.269531 C 182.824219 312.398438 183.613281 311.769531 184.328125 311.273438 C 194.371094 304.277344 204.414062 297.28125 214.453125 290.289062 C 215.371094 289.648438 216.351562 288.988281 217.46875 288.910156 C 219.738281 288.757812 221.371094 290.964844 222.542969 292.914062 C 223.78125 294.980469 225.023438 297.046875 226.261719 299.109375 C 226.792969 299.992188 227.339844 301.027344 227.003906 301.996094 C 226.761719 302.695312 226.121094 303.164062 225.515625 303.585938 C 216.117188 310.148438 206.71875 316.707031 197.320312 323.265625 C 196.167969 324.070312 194.886719 324.910156 193.488281 324.78125 C 191.945312 324.644531 190.777344 323.382812 189.769531 322.207031 Z M 189.769531 322.207031 " fill-opacity="1" fill-rule="nonzero"/><path fill="#ffa500" d="M 383.167969 215.101562 C 384.230469 218.414062 385.296875 221.726562 386.359375 225.035156 C 374.714844 229.535156 363.023438 233.921875 351.289062 238.195312 C 349.960938 238.679688 348.757812 237.277344 348.03125 236.0625 C 346.578125 233.628906 345.121094 231.195312 343.667969 228.761719 C 342.804688 227.316406 341.925781 225.53125 342.710938 224.046875 C 343.277344 222.980469 344.511719 222.484375 345.648438 222.074219 C 355.90625 218.363281 366.164062 214.652344 376.421875 210.941406 C 377.417969 210.582031 378.472656 210.214844 379.511719 210.417969 C 381.554688 210.820312 382.527344 213.117188 383.167969 215.101562 Z M 383.167969 215.101562 " fill-opacity="1" fill-rule="nonzero"/><path fill="#ffa500" d="M 146.125 341.191406 C 147.203125 341.449219 148.035156 342.285156 148.804688 343.082031 C 150.636719 344.976562 152.46875 346.871094 154.300781 348.765625 C 155.632812 350.144531 156.945312 352.496094 155.464844 353.710938 C 146.179688 361.3125 136.894531 368.914062 127.613281 376.515625 C 126.890625 377.105469 126.097656 377.722656 125.167969 377.757812 C 123.890625 377.800781 122.875 376.757812 122.035156 375.796875 C 119.960938 373.421875 117.890625 371.042969 115.816406 368.667969 C 115.15625 367.90625 114.445312 366.964844 114.710938 365.996094 C 114.875 365.398438 115.371094 364.960938 115.847656 364.5625 C 124.316406 357.441406 132.789062 350.316406 141.261719 343.195312 C 142.65625 342.019531 144.351562 340.769531 146.125 341.191406 Z M 146.125 341.191406 " fill-opacity="1" fill-rule="nonzero"/><path fill="#ffa500" d="M 58.96875 427.363281 C 58.183594 426.742188 57.347656 426.046875 57.117188 425.070312 C 56.792969 423.6875 57.800781 422.375 58.742188 421.3125 C 65.359375 413.84375 72.144531 406.527344 79.101562 399.375 C 79.875 398.578125 80.847656 397.710938 81.945312 397.898438 C 82.75 398.03125 83.34375 398.699219 83.867188 399.320312 C 86.753906 402.757812 89.640625 406.191406 92.523438 409.628906 C 85.179688 417.464844 77.835938 425.300781 70.492188 433.140625 C 70.050781 433.609375 69.570312 434.105469 68.9375 434.242188 C 68.019531 434.4375 67.148438 433.824219 66.410156 433.242188 C 63.929688 431.28125 61.449219 429.320312 58.96875 427.363281 Z M 58.96875 427.363281 " fill-opacity="1" fill-rule="nonzero"/><path fill="#ffa500" d="M 16.914062 498.9375 C 15.757812 498.96875 14.703125 498.335938 13.722656 497.722656 C 11.050781 496.054688 8.375 494.382812 5.703125 492.714844 C 5.007812 492.28125 4.246094 491.742188 4.144531 490.929688 C 4.0625 490.289062 4.429688 489.6875 4.785156 489.148438 C 11.070312 479.539062 17.851562 470.25 25.085938 461.332031 C 25.640625 460.652344 26.269531 459.929688 27.132812 459.789062 C 28.132812 459.628906 29.054688 460.300781 29.84375 460.9375 C 31.960938 462.640625 34.078125 464.34375 36.195312 466.046875 C 37.234375 466.882812 38.339844 467.832031 38.582031 469.140625 C 38.851562 470.609375 37.941406 472.011719 37.078125 473.230469 C 31.757812 480.738281 26.4375 488.246094 21.117188 495.757812 C 20.0625 497.246094 18.738281 498.886719 16.914062 498.9375 Z M 16.914062 498.9375 " fill-opacity="1" fill-rule="nonzero"/><path fill="#ffa500" d="M 429.503906 210.601562 C 428.863281 210.246094 428.53125 209.527344 428.238281 208.855469 C 427.183594 206.441406 426.128906 204.023438 425.074219 201.609375 C 424.558594 200.425781 424.027344 199.164062 424.21875 197.886719 C 424.609375 195.265625 427.617188 194.050781 430.164062 193.328125 C 437.488281 191.253906 444.8125 189.179688 452.132812 187.105469 C 453.476562 186.726562 454.980469 186.363281 456.207031 187.023438 C 457.539062 187.742188 458.023438 189.378906 458.382812 190.847656 C 459.054688 193.59375 459.726562 196.339844 460.402344 199.089844 C 460.609375 199.933594 460.808594 200.84375 460.476562 201.644531 C 460 202.800781 458.640625 203.261719 457.4375 203.59375 C 448.976562 205.917969 440.519531 208.246094 432.058594 210.574219 C 431.214844 210.804688 430.269531 211.027344 429.503906 210.601562 Z M 429.503906 210.601562 " fill-opacity="1" fill-rule="nonzero"/><path fill="#ffa500" d="M 599.765625 173.546875 C 599.210938 170.945312 598.652344 168.34375 598.097656 165.742188 C 597.832031 164.496094 597.664062 162.960938 598.664062 162.179688 C 599.148438 161.800781 599.785156 161.714844 600.390625 161.636719 C 609.644531 160.488281 618.925781 159.566406 628.226562 158.878906 C 629.941406 158.75 631.847656 158.691406 633.164062 159.796875 C 634.457031 160.878906 634.742188 162.722656 634.941406 164.394531 C 635.191406 166.476562 635.4375 168.554688 635.6875 170.632812 C 635.839844 171.933594 635.9375 173.425781 635.035156 174.375 C 634.304688 175.144531 633.152344 175.300781 632.097656 175.40625 C 623.078125 176.324219 614.0625 177.238281 605.042969 178.15625 C 604.152344 178.246094 603.222656 178.332031 602.390625 177.996094 C 600.726562 177.320312 600.140625 175.304688 599.765625 173.546875 Z M 599.765625 173.546875 " fill-opacity="1" fill-rule="nonzero"/></svg>