<svg xmlns="http://www.w3.org/2000/svg" xmlns:xlink="http://www.w3.org/1999/xlink" width="1080" zoomAndPan="magnify" viewBox="0 0 810 809.999993" height="1080" preserveAspectRatio="xMidYMid meet" version="1.0"><defs><clipPath id="09f63727ed"><path d="M 547.234375 107.832031 L 808.996094 107.832031 L 808.996094 488 L 547.234375 488 Z M 547.234375 107.832031 " clip-rule="nonzero"/></clipPath><clipPath id="88279ba86a"><path d="M 0.960938 340 L 236.699219 340 L 236.699219 701.828125 L 0.960938 701.828125 Z M 0.960938 340 " clip-rule="nonzero"/></clipPath><clipPath id="2515c8b760"><path d="M 70 297 L 350 297 L 350 701.828125 L 70 701.828125 Z M 70 297 " clip-rule="nonzero"/></clipPath></defs><path fill="#3b2782" d="M 547.980469 147.972656 L 657.488281 241.003906 L 703.125 421.605469 L 637.417969 487.277344 L 529.730469 397.886719 L 482.269531 237.359375 L 547.980469 147.972656 " fill-opacity="1" fill-rule="nonzero"/><g clip-path="url(#09f63727ed)"><path fill="#4f3da5" d="M 652.015625 107.839844 L 547.980469 147.972656 L 657.488281 241.003906 L 703.125 421.605469 L 637.417969 487.277344 L 730.5 456.257812 L 808.984375 377.828125 L 763.351562 199.050781 L 652.015625 107.839844 " fill-opacity="1" fill-rule="nonzero"/></g><path fill="#4f3da5" d="M 210.011719 390.851562 L 545.472656 262.570312 C 545.472656 262.570312 595.347656 275.800781 611.863281 310.625 C 645.304688 381.136719 566.863281 421.949219 566.863281 421.949219 L 267.386719 540.515625 L 210.011719 390.851562 " fill-opacity="1" fill-rule="nonzero"/><g clip-path="url(#88279ba86a)"><path fill="#4f3da5" d="M 70.972656 340.3125 L 187.652344 439.445312 L 236.273438 631.855469 L 166.261719 701.828125 L 51.519531 606.59375 L 0.960938 435.550781 L 70.972656 340.3125 " fill-opacity="1" fill-rule="nonzero"/></g><g clip-path="url(#2515c8b760)"><path fill="#3b2782" d="M 181.820312 297.554688 L 70.972656 340.3125 L 187.652344 439.445312 L 236.273438 631.855469 L 166.261719 701.828125 L 265.4375 668.785156 L 349.058594 585.210938 L 300.441406 394.738281 L 181.820312 297.554688 " fill-opacity="1" fill-rule="nonzero"/></g></svg>