<svg xmlns="http://www.w3.org/2000/svg" xmlns:xlink="http://www.w3.org/1999/xlink" width="1080" zoomAndPan="magnify" viewBox="0 0 810 809.999993" height="1080" preserveAspectRatio="xMidYMid meet" version="1.0"><path fill="#316ff6" d="M 708.191406 1.582031 L 101.582031 1.582031 C 45.832031 1.582031 0 47.347656 0 102.839844 L 0 706.667969 C 0 762.171875 45.832031 808.417969 101.582031 808.417969 L 403.417969 808.417969 L 403.417969 529.980469 L 303.75 529.980469 L 303.75 406.582031 L 403.417969 406.582031 L 403.417969 304.117188 C 403.417969 220.734375 472.78125 155.039062 556.542969 155.039062 L 659.707031 155.039062 L 659.707031 280.019531 L 607.09375 280.019531 C 579.195312 280.019531 556.875 276.339844 556.875 304.117188 L 556.875 406.582031 L 682.925781 406.582031 L 632.371094 529.980469 L 556.875 529.980469 L 556.875 808.417969 L 708.191406 808.417969 C 763.957031 808.417969 810 762.171875 810 706.667969 L 810 102.839844 C 810 47.347656 763.957031 1.582031 708.191406 1.582031 Z M 708.191406 1.582031 " fill-opacity="1" fill-rule="nonzero"/></svg>