<svg xmlns="http://www.w3.org/2000/svg" xmlns:xlink="http://www.w3.org/1999/xlink" width="1080" zoomAndPan="magnify" viewBox="0 0 810 809.999993" height="1080" preserveAspectRatio="xMidYMid meet" version="1.0"><path fill="#b9b8b8" d="M 804.445312 373.28125 C 793.738281 347.3125 719.75 354.808594 697.683594 354.09375 C 630.769531 351.960938 563.117188 354.878906 496.222656 356.902344 C 356.585938 361.125 217.621094 371.660156 78.171875 364.714844 C 61.726562 360.644531 29.25 349.082031 18.773438 355.914062 C 7.089844 363.542969 0.0546875 429.363281 6.761719 443.164062 C 15.898438 461.96875 59.707031 457.355469 78.199219 458.488281 C 141.019531 462.320312 207.417969 455.992188 270.144531 452.035156 C 412.582031 443.066406 555.878906 445.972656 698.070312 450.863281 C 717.867188 451.542969 738.410156 451.46875 757.890625 449.457031 C 768.503906 448.359375 791.128906 451.578125 799.816406 444.816406 C 809.597656 437.214844 809.867188 386.4375 804.445312 373.28125 Z M 804.445312 373.28125 " fill-opacity="1" fill-rule="nonzero"/><path fill="#c6c6c6" d="M 98.179688 281.277344 C 92.3125 275.238281 83.113281 281.640625 76.039062 282.496094 C 68.417969 283.414062 58.425781 282.128906 52.726562 289.53125 C 43.546875 301.46875 48.175781 323.042969 48.867188 338.667969 C 50.144531 367.257812 53.378906 400.035156 50.265625 427.742188 C 46.011719 465.582031 41.28125 552.449219 85.441406 547.453125 C 94.28125 546.453125 106.746094 546.65625 108.035156 532.597656 C 109.933594 511.917969 107.207031 488.867188 107.730469 467.644531 C 108.367188 441.75 112.207031 415.589844 110.203125 389.539062 C 109.039062 374.425781 109.472656 359.761719 108.230469 344.6875 C 107.242188 332.703125 107.003906 320.078125 109.019531 308.472656 C 109.015625 308.472656 102.695312 285.929688 98.179688 281.277344 Z M 98.179688 281.277344 " fill-opacity="1" fill-rule="nonzero"/><path fill="#cecece" d="M 132.425781 237.765625 C 118.199219 240.761719 99.863281 240.691406 90.359375 257.191406 C 78.3125 278.089844 88.472656 308.648438 90.167969 332.867188 C 92.945312 372.539062 85.746094 411.511719 88.777344 451.15625 C 91.179688 482.632812 85.699219 515.585938 93.308594 546.632812 C 103.902344 589.921875 132.347656 582.070312 159.785156 580.472656 C 180.957031 579.230469 202.730469 571.683594 210.738281 542.34375 C 222.996094 497.425781 209.183594 380.515625 208.386719 329.570312 C 207.0625 245.34375 189.898438 225.660156 132.425781 237.765625 Z M 132.425781 237.765625 " fill-opacity="1" fill-rule="nonzero"/><path fill="#c6c6c6" d="M 717.683594 281.277344 C 723.546875 275.238281 732.75 281.640625 739.820312 282.496094 C 747.445312 283.414062 757.4375 282.128906 763.132812 289.53125 C 772.3125 301.46875 767.6875 323.042969 766.996094 338.667969 C 765.71875 367.257812 762.484375 400.035156 765.597656 427.742188 C 769.847656 465.582031 774.582031 552.449219 730.421875 547.453125 C 721.585938 546.453125 709.117188 546.65625 707.824219 532.597656 C 705.929688 511.917969 708.652344 488.867188 708.128906 467.644531 C 707.496094 441.75 703.652344 415.589844 705.660156 389.539062 C 706.824219 374.425781 706.386719 359.761719 707.628906 344.6875 C 708.621094 332.703125 708.859375 320.078125 706.84375 308.472656 C 706.84375 308.472656 713.167969 285.929688 717.683594 281.277344 Z M 717.683594 281.277344 " fill-opacity="1" fill-rule="nonzero"/><path fill="#cecece" d="M 668.671875 235.015625 C 685.332031 238.683594 706.644531 239.46875 718.324219 256.441406 C 733.117188 277.945312 722.453125 308.082031 721.402344 332.261719 C 719.671875 371.878906 729.511719 411.265625 727.488281 450.832031 C 725.878906 482.25 733.496094 515.519531 725.824219 546.269531 C 715.136719 589.132812 681.769531 579.9375 649.804688 577.046875 C 625.144531 574.8125 599.546875 566.234375 589.125 536.457031 C 573.175781 490.886719 584.820312 374.414062 583.828125 323.421875 C 582.179688 239.101562 601.390625 220.1875 668.671875 235.015625 Z M 668.671875 235.015625 " fill-opacity="1" fill-rule="nonzero"/><path fill="#6f66a3" d="M 727.582031 547.566406 C 727.285156 547.566406 726.980469 547.535156 726.675781 547.476562 C 724.097656 546.980469 722.414062 544.484375 722.914062 541.90625 C 731.015625 500.09375 727.804688 445.785156 724.695312 393.269531 C 722.390625 354.316406 720.003906 314.039062 722.03125 277.8125 C 722.175781 275.195312 724.433594 273.222656 727.039062 273.335938 C 729.660156 273.484375 731.664062 275.726562 731.519531 278.347656 C 729.523438 314.023438 731.890625 354.023438 734.179688 392.707031 C 737.320312 445.816406 740.570312 500.730469 732.238281 543.71875 C 731.804688 545.988281 729.816406 547.566406 727.582031 547.566406 Z M 727.582031 547.566406 " fill-opacity="1" fill-rule="nonzero"/><path fill="#6f66a3" d="M 102.0625 546.097656 C 100.683594 546.097656 98.964844 545.484375 97.328125 543.222656 C 96.75 542.421875 96.433594 541.457031 96.425781 540.464844 C 96.238281 508.140625 95.472656 474.597656 94.085938 437.914062 C 93.25 415.75 90.273438 392.621094 87.386719 370.253906 C 83.761719 342.105469 80.011719 312.996094 80.429688 285.21875 C 80.46875 282.59375 82.714844 280.53125 85.253906 280.539062 C 87.875 280.578125 89.96875 282.738281 89.933594 285.363281 C 89.523438 312.457031 93.230469 341.222656 96.8125 369.039062 C 99.722656 391.613281 102.730469 414.960938 103.582031 437.554688 C 104.863281 471.46875 105.617188 502.71875 105.875 532.804688 C 106.605469 533.816406 106.933594 535.105469 106.703125 536.414062 C 106.707031 536.800781 106.8125 537.660156 106.878906 538.1875 C 107.140625 540.316406 107.628906 544.273438 103.894531 545.742188 C 103.417969 545.929688 102.789062 546.097656 102.0625 546.097656 Z M 102.0625 546.097656 " fill-opacity="1" fill-rule="nonzero"/><path fill="#6f66a3" d="M 49.898438 458.515625 C 49.8125 458.515625 49.722656 458.511719 49.632812 458.507812 C 44.199219 458.207031 44.242188 454.136719 44.386719 438.996094 C 44.429688 434.546875 44.480469 429.503906 44.363281 425.042969 C 44.175781 417.941406 43.636719 410.417969 43.117188 403.140625 C 42.003906 387.628906 40.855469 371.59375 42.777344 356.875 C 43.117188 354.273438 45.507812 352.425781 48.105469 352.777344 C 50.707031 353.117188 52.539062 355.503906 52.199219 358.105469 C 50.402344 371.871094 51.515625 387.421875 52.59375 402.460938 C 53.125 409.84375 53.671875 417.476562 53.863281 424.789062 C 53.984375 429.421875 53.933594 434.554688 53.890625 439.085938 C 53.847656 443.683594 53.796875 449.296875 54.019531 451.394531 C 54.464844 452.164062 54.695312 453.070312 54.644531 454.023438 C 54.5 456.554688 52.402344 458.515625 49.898438 458.515625 Z M 49.898438 458.515625 " fill-opacity="1" fill-rule="nonzero"/><path fill="#6f66a3" d="M 768.476562 448.886719 C 765.855469 448.886719 763.726562 446.757812 763.726562 444.136719 C 763.726562 437.789062 763.242188 424.199219 762.734375 409.8125 C 762.105469 392.179688 761.394531 372.195312 761.324219 359.121094 C 761.308594 356.496094 763.425781 354.355469 766.050781 354.34375 C 766.058594 354.34375 766.070312 354.34375 766.074219 354.34375 C 768.6875 354.34375 770.8125 356.453125 770.828125 359.070312 C 770.898438 372 771.605469 391.910156 772.230469 409.476562 C 772.769531 424.574219 773.230469 437.617188 773.230469 444.136719 C 773.230469 446.757812 771.101562 448.886719 768.476562 448.886719 Z M 768.476562 448.886719 " fill-opacity="1" fill-rule="nonzero"/></svg>