<svg xmlns="http://www.w3.org/2000/svg" xmlns:xlink="http://www.w3.org/1999/xlink" width="1080" zoomAndPan="magnify" viewBox="0 0 810 809.999993" height="1080" preserveAspectRatio="xMidYMid meet" version="1.0"><defs><clipPath id="29b25d7449"><path d="M 215 329 L 426 329 L 426 702.660156 L 215 702.660156 Z M 215 329 " clip-rule="nonzero"/></clipPath></defs><path fill="#7985a1" d="M 334.472656 363.421875 C 291.417969 337.226562 266.292969 289.574219 268.898438 239.070312 C 270.0625 216.570312 276.890625 194.464844 288.644531 175.152344 C 295.839844 163.324219 304.726562 152.710938 315.050781 143.605469 C 336.507812 124.707031 364.101562 112.78125 392.746094 110.027344 C 422.382812 107.179688 451.488281 113.851562 476.921875 129.328125 C 541.464844 168.597656 562.023438 253.054688 522.75 317.597656 C 483.476562 382.136719 399.015625 402.691406 334.472656 363.421875 Z M 469.214844 141.992188 C 424.933594 115.046875 368.222656 119.0625 328.097656 151.980469 C 317.503906 160.664062 308.492188 171.054688 301.308594 182.859375 C 291.027344 199.757812 285.144531 218.265625 283.828125 237.871094 C 280.691406 283.695312 303.046875 326.949219 342.179688 350.757812 C 399.738281 385.777344 475.058594 367.445312 510.082031 309.890625 C 545.109375 252.332031 526.773438 177.011719 469.214844 141.992188 Z M 469.214844 141.992188 " fill-opacity="1" fill-rule="nonzero"/><path fill="#dc2620" d="M 809.589844 491.464844 L 571.171875 283.488281 C 566.207031 279.15625 560.117188 276.316406 553.597656 275.394531 C 524.460938 271.308594 492.582031 282.691406 470.382812 308.140625 C 445.355469 336.824219 439.710938 375.246094 453.03125 405.554688 L 453.019531 405.566406 L 698.054688 619.316406 C 704.585938 625.011719 714.507812 624.335938 720.203125 617.804688 L 811.101562 513.613281 C 816.796875 507.085938 816.121094 497.160156 809.589844 491.464844 Z M 490.703125 357.1875 C 480.871094 348.613281 479.855469 333.714844 488.429688 323.882812 C 497.007812 314.050781 511.90625 313.035156 521.738281 321.613281 C 531.566406 330.1875 532.582031 345.085938 524.007812 354.917969 C 515.429688 364.746094 500.53125 365.761719 490.703125 357.1875 Z M 490.703125 357.1875 " fill-opacity="1" fill-rule="nonzero"/><path fill="#ff5948" d="M 805.28125 487.15625 L 566.863281 279.179688 C 561.898438 274.847656 555.808594 272.007812 549.289062 271.085938 C 520.152344 267 488.273438 278.386719 466.074219 303.832031 C 441.050781 332.515625 435.402344 370.9375 448.722656 401.246094 L 448.714844 401.257812 L 693.746094 615.007812 C 700.277344 620.703125 710.199219 620.027344 715.898438 613.5 L 806.792969 509.308594 C 812.488281 502.777344 811.8125 492.855469 805.28125 487.15625 Z M 486.394531 352.878906 C 476.5625 344.304688 475.546875 329.40625 484.125 319.574219 C 492.699219 309.742188 507.597656 308.726562 517.429688 317.304688 C 527.257812 325.878906 528.273438 340.777344 519.699219 350.609375 C 511.125 360.441406 496.222656 361.457031 486.394531 352.878906 Z M 486.394531 352.878906 " fill-opacity="1" fill-rule="nonzero"/><path fill="#ffffff" d="M 767.246094 492.101562 L 587.980469 335.722656 C 585.527344 333.582031 581.804688 333.835938 579.667969 336.289062 L 513.648438 411.964844 C 511.507812 414.414062 511.761719 418.136719 514.214844 420.277344 L 693.480469 576.65625 C 695.933594 578.792969 699.65625 578.539062 701.792969 576.085938 L 767.8125 500.414062 C 769.953125 497.960938 769.699219 494.238281 767.246094 492.101562 Z M 767.246094 492.101562 " fill-opacity="1" fill-rule="nonzero"/><path fill="#38434b" d="M 654.90625 414.726562 C 654.359375 412.902344 652.863281 411.550781 651.183594 411.359375 C 650.421875 411.273438 649.269531 411.378906 648.085938 412.371094 L 593.417969 458.101562 C 591.933594 459.34375 591.359375 461.28125 591.921875 463.160156 C 592.472656 464.984375 593.96875 466.335938 595.648438 466.527344 C 596.410156 466.613281 597.5625 466.507812 598.746094 465.515625 L 653.414062 419.785156 C 654.902344 418.542969 655.472656 416.605469 654.90625 414.726562 Z M 654.90625 414.726562 " fill-opacity="1" fill-rule="nonzero"/><path fill="#38434b" d="M 690.859375 446.085938 C 690.3125 444.265625 688.816406 442.914062 687.136719 442.722656 C 686.375 442.636719 685.222656 442.742188 684.035156 443.734375 L 660.898438 463.085938 C 657.570312 460.160156 653.621094 457.503906 649.117188 455.160156 C 658.792969 451.085938 667.664062 444.609375 674.382812 436.664062 C 675.496094 435.347656 675.78125 433.703125 675.167969 432.15625 C 674.519531 430.527344 672.945312 429.304688 671.25 429.113281 C 669.804688 428.949219 668.457031 429.511719 667.460938 430.6875 C 659.132812 440.539062 647.136719 447.742188 635.378906 449.957031 C 633.246094 450.359375 631.449219 452.425781 631.289062 454.660156 C 631.15625 456.511719 632.222656 458.054688 634.074219 458.6875 C 642.144531 461.4375 648.761719 464.921875 653.773438 469.046875 L 629.367188 489.464844 C 627.882812 490.707031 627.308594 492.644531 627.875 494.523438 C 628.421875 496.34375 629.917969 497.699219 631.601562 497.886719 C 632.363281 497.972656 633.515625 497.867188 634.699219 496.878906 L 660.035156 475.683594 C 660.570312 476.4375 661.054688 477.199219 661.488281 477.960938 C 662.199219 479.214844 663.316406 479.984375 664.632812 480.132812 C 666.296875 480.324219 668.089844 479.4375 669.082031 477.929688 C 670.054688 476.460938 670.109375 474.652344 669.230469 473.101562 C 668.597656 471.984375 667.890625 470.894531 667.082031 469.789062 L 689.367188 451.144531 C 690.851562 449.902344 691.421875 447.964844 690.859375 446.085938 Z M 690.859375 446.085938 " fill-opacity="1" fill-rule="nonzero"/><path fill="#b2bcd5" d="M 314.191406 259.011719 C 289.90625 226.367188 244.214844 217.078125 209.152344 237.746094 C 179.484375 255.222656 165.558594 288.15625 170.449219 319.503906 L 156.105469 329.347656 C 154.3125 330.578125 153.851562 333 155.078125 334.792969 L 159.617188 341.40625 L 2.917969 448.929688 C 1.125 450.160156 -0.238281 451.917969 -0.988281 453.960938 L -3.832031 461.699219 C -3.832031 461.699219 0.394531 462.433594 -6.015625 467.625 L -6.207031 468.15625 C -7.085938 470.554688 -7.046875 473.164062 -6.167969 475.511719 C -6.167969 475.511719 -2.507812 475.128906 -4.355469 478.699219 L -1.195312 483.3125 C 0.109375 485.210938 2.003906 486.613281 4.15625 487.328125 C 4.15625 487.328125 10.46875 484.351562 9.734375 487.933594 L 22.425781 488.113281 C 24.609375 488.164062 26.746094 487.496094 28.539062 486.265625 L 46.601562 473.871094 C 46.964844 473.621094 47.125 473.113281 46.863281 472.761719 C 46.277344 471.945312 46.476562 470.8125 47.289062 470.253906 L 55.246094 464.792969 C 55.820312 464.402344 56.542969 464.390625 57.117188 464.710938 C 57.640625 464.992188 58.257812 464.988281 58.808594 464.722656 L 62.695312 462.828125 C 63.074219 462.570312 63.167969 462.0625 62.910156 461.6875 L 59.992188 457.4375 C 59.433594 456.625 59.652344 455.519531 60.453125 454.972656 L 65.574219 451.457031 C 66.375 450.910156 67.480469 451.101562 68.039062 451.917969 L 70.953125 456.164062 C 71.210938 456.542969 71.71875 456.636719 72.097656 456.378906 L 76.042969 453.667969 C 76.421875 453.410156 76.53125 452.890625 76.273438 452.515625 L 74.328125 449.683594 C 73.769531 448.871094 73.972656 447.777344 74.785156 447.21875 L 82.742188 441.761719 C 83.542969 441.210938 84.648438 441.40625 85.207031 442.21875 L 87.148438 445.050781 C 87.410156 445.429688 87.917969 445.523438 88.292969 445.265625 L 92.257812 442.546875 C 92.632812 442.289062 92.726562 441.777344 92.46875 441.402344 L 88.582031 435.738281 C 88.1875 435.164062 88.175781 434.464844 88.492188 433.894531 C 88.613281 433.65625 88.800781 433.441406 89.039062 433.273438 L 92.730469 430.742188 C 92.972656 430.574219 93.242188 430.480469 93.507812 430.453125 C 94.140625 430.371094 94.804688 430.625 95.195312 431.199219 L 103.332031 433.949219 C 103.386719 434.023438 103.453125 434.089844 103.535156 434.144531 C 103.726562 434.296875 103.984375 434.34375 104.21875 434.269531 C 104.316406 434.25 104.402344 434.210938 104.476562 434.160156 L 111.875 429.085938 C 112.25 428.828125 112.347656 428.316406 112.089844 427.941406 L 111.117188 426.523438 C 110.558594 425.710938 110.761719 424.617188 111.574219 424.058594 L 119.53125 418.601562 C 120.328125 418.054688 121.4375 418.246094 121.992188 419.058594 L 122.964844 420.476562 C 123.222656 420.851562 123.734375 420.949219 124.109375 420.6875 L 127.46875 418.382812 C 127.847656 418.125 127.957031 417.605469 127.695312 417.230469 L 124.78125 412.980469 C 124.222656 412.167969 124.425781 411.074219 125.238281 410.515625 L 130.363281 407.003906 C 131.144531 406.464844 132.253906 406.65625 132.8125 407.472656 L 135.726562 411.71875 C 135.984375 412.097656 136.507812 412.179688 136.886719 411.921875 L 185.234375 378.746094 L 189.785156 385.375 C 191.003906 387.152344 193.445312 387.605469 195.238281 386.375 L 209.582031 376.535156 C 235.550781 391.511719 268.867188 391.300781 295.222656 373.21875 C 332.652344 347.535156 341.519531 295.773438 314.191406 259.011719 Z M 261.445312 298.996094 C 254.03125 288.191406 256.785156 273.40625 267.601562 265.984375 C 278.40625 258.570312 293.191406 261.320312 300.605469 272.125 C 308.03125 282.941406 305.277344 297.726562 294.472656 305.140625 C 283.65625 312.5625 268.871094 309.8125 261.445312 298.996094 Z M 261.445312 298.996094 " fill-opacity="1" fill-rule="nonzero"/><path fill="#8b2b00" d="M 103.539062 434.136719 L 104.226562 434.265625 C 103.988281 434.339844 103.734375 434.292969 103.539062 434.136719 Z M 103.539062 434.136719 " fill-opacity="1" fill-rule="nonzero"/><path fill="#7985a1" d="M 159.882812 363.789062 L 154.1875 355.484375 C 153.617188 354.65625 152.488281 354.433594 151.644531 355.011719 L -3.832031 461.699219 C -3.832031 461.699219 0.394531 462.433594 -6.015625 467.625 L 152.207031 359.058594 L 155.835938 364.347656 L -6.167969 475.511719 C -6.167969 475.511719 -2.507812 475.125 -4.355469 478.699219 L 159.410156 366.328125 C 160.253906 365.75 160.453125 364.613281 159.882812 363.789062 Z M 159.882812 363.789062 " fill-opacity="1" fill-rule="nonzero"/><path fill="#7985a1" d="M 168.230469 379.179688 L 9.738281 487.933594 C 10.46875 484.347656 4.160156 487.328125 4.160156 487.328125 L 166.160156 376.167969 C 167.003906 375.585938 168.132812 375.8125 168.703125 376.640625 C 169.269531 377.46875 169.074219 378.601562 168.230469 379.179688 Z M 168.230469 379.179688 " fill-opacity="1" fill-rule="nonzero"/><path fill="#7985a1" d="M 154.429688 344.96875 L 159.613281 341.414062 L 185.234375 378.746094 L 180.050781 382.304688 Z M 154.429688 344.96875 " fill-opacity="1" fill-rule="nonzero"/><path fill="#ffffff" d="M 182.851562 296.476562 C 182.652344 296.457031 182.457031 296.421875 182.261719 296.375 C 179.605469 295.746094 177.960938 293.085938 178.589844 290.429688 C 187.136719 254.28125 221.46875 230.175781 258.449219 234.359375 C 261.164062 234.664062 263.113281 237.113281 262.804688 239.824219 C 262.496094 242.535156 260.050781 244.488281 257.339844 244.179688 C 225.324219 240.558594 195.605469 261.421875 188.207031 292.703125 C 187.625 295.164062 185.300781 296.753906 182.851562 296.476562 Z M 182.851562 296.476562 " fill-opacity="1" fill-rule="nonzero"/><g clip-path="url(#29b25d7449)"><path fill="#ffc418" d="M 369.835938 339.796875 C 349.914062 332.042969 330.773438 327.863281 314.75 330.742188 C 307.378906 332.050781 300.652344 334.863281 294.804688 339.507812 C 288.246094 344.71875 282.808594 352.230469 278.800781 362.535156 C 267.738281 390.933594 269.375 435.886719 285.886719 464.496094 L 280.203125 479.085938 C 279.460938 480.996094 280.402344 483.164062 282.324219 483.914062 L 288.488281 486.3125 L 216.605469 670.925781 C 215.816406 672.953125 215.652344 675.183594 216.203125 677.300781 L 218.738281 687.40625 C 218.738281 687.40625 222.433594 685.726562 220.34375 693.363281 C 221.277344 695.648438 222.976562 697.523438 225.152344 698.6875 C 225.152344 698.6875 228.328125 695.214844 228.53125 700.082031 L 232.550781 701.644531 C 235.257812 702.699219 238.242188 702.585938 240.839844 701.363281 C 240.839844 701.363281 244.664062 693.851562 246.042969 698.074219 L 254.773438 692.316406 C 256.609375 691.128906 258.015625 689.382812 258.804688 687.355469 L 273.304688 650.117188 C 273.449219 649.742188 273.273438 649.339844 272.898438 649.195312 L 267.242188 646.992188 C 266.851562 646.839844 266.664062 646.414062 266.8125 646.039062 L 270.644531 636.199219 C 270.789062 635.824219 271.238281 635.625 271.628906 635.777344 L 281.046875 628.363281 C 281.476562 628.023438 281.363281 627.351562 280.851562 627.152344 L 278.960938 626.414062 C 278.570312 626.261719 278.390625 625.820312 278.542969 625.429688 L 282.984375 614.019531 C 283.136719 613.628906 283.570312 613.425781 283.960938 613.578125 L 286.398438 614.527344 C 286.773438 614.671875 287.167969 614.511719 287.3125 614.136719 L 291.5625 603.222656 C 291.707031 602.847656 291.53125 602.445312 291.15625 602.300781 L 283.902344 599.476562 C 283.511719 599.324219 283.324219 598.898438 283.46875 598.523438 L 286.671875 590.300781 C 286.824219 589.90625 287.273438 589.710938 287.667969 589.863281 L 294.902344 592.679688 C 295.277344 592.824219 295.679688 592.648438 295.820312 592.292969 L 300.070312 581.375 C 300.207031 581.019531 300.03125 580.617188 299.65625 580.472656 L 297.222656 579.523438 C 296.832031 579.371094 296.648438 578.925781 296.800781 578.535156 L 301.246094 567.128906 C 301.398438 566.738281 301.824219 566.550781 302.214844 566.703125 L 304.648438 567.652344 C 305.023438 567.796875 305.425781 567.621094 305.574219 567.246094 L 330.6875 502.742188 L 336.835938 505.136719 C 338.757812 505.886719 340.933594 504.929688 341.679688 503.023438 L 347.359375 488.429688 C 368.230469 481.871094 389.160156 465.585938 404.089844 447.082031 C 411.714844 437.679688 417.78125 427.6875 421.515625 418.101562 C 436.855469 378.695312 409.238281 355.140625 369.835938 339.796875 Z M 397.011719 385.339844 C 394 391.40625 386.492188 393.71875 380.613281 390.332031 C 372.769531 385.804688 364.011719 381.75 354.683594 378.117188 C 345.488281 374.535156 336.425781 371.617188 327.695312 369.667969 C 321.121094 368.167969 317.164062 361.410156 319.007812 354.914062 L 319.015625 354.894531 C 320.714844 348.96875 326.691406 345.355469 332.742188 346.535156 C 342.582031 348.460938 352.898438 351.675781 363.386719 355.761719 C 374.046875 359.910156 383.933594 364.585938 392.601562 369.917969 C 397.835938 373.152344 399.789062 379.816406 397.011719 385.339844 Z M 397.011719 385.339844 " fill-opacity="1" fill-rule="nonzero"/></g><path fill="#ffb600" d="M 282.0625 627.609375 L 282.011719 627.589844 L 282.09375 627.53125 Z M 282.0625 627.609375 " fill-opacity="1" fill-rule="nonzero"/><path fill="#ffffff" d="M 282.09375 627.53125 L 282.0625 627.609375 L 282.011719 627.589844 Z M 282.09375 627.53125 " fill-opacity="1" fill-rule="nonzero"/><path fill="#ffffff" d="M 282.09375 627.53125 L 282.0625 627.609375 L 282.011719 627.589844 Z M 282.09375 627.53125 " fill-opacity="1" fill-rule="nonzero"/><path fill="#ffa200" d="M 299.554688 512.644531 L 290.171875 508.988281 C 289.234375 508.625 288.175781 509.078125 287.804688 510.03125 L 218.738281 687.40625 C 218.738281 687.40625 222.433594 685.726562 220.34375 693.363281 L 290.550781 513.058594 L 296.527344 515.386719 L 225.152344 698.6875 C 225.152344 698.6875 228.328125 695.214844 228.53125 700.082031 L 300.59375 515.007812 C 300.964844 514.054688 300.492188 513.007812 299.554688 512.644531 Z M 299.554688 512.644531 " fill-opacity="1" fill-rule="nonzero"/><path fill="#ffa200" d="M 315.121094 520.664062 L 246.039062 698.074219 C 244.664062 693.851562 240.835938 701.363281 240.835938 701.363281 L 311.714844 519.339844 C 312.085938 518.382812 313.140625 517.933594 314.078125 518.296875 C 315.015625 518.664062 315.492188 519.710938 315.121094 520.664062 Z M 315.121094 520.664062 " fill-opacity="1" fill-rule="nonzero"/><path fill="#ffa200" d="M 285.675781 493.488281 L 288.484375 486.269531 L 330.683594 502.699219 L 327.871094 509.917969 Z M 285.675781 493.488281 " fill-opacity="1" fill-rule="nonzero"/><path fill="#ffefae" d="M 287.101562 427.496094 C 285.003906 427.261719 283.21875 425.6875 282.804688 423.507812 C 282.296875 420.847656 270.871094 358.046875 313.246094 338.308594 C 315.71875 337.15625 318.660156 338.230469 319.8125 340.703125 C 320.964844 343.175781 319.894531 346.113281 317.417969 347.269531 C 281.941406 363.792969 292.402344 421.085938 292.511719 421.660156 C 293.023438 424.34375 291.261719 426.929688 288.582031 427.441406 C 288.082031 427.535156 287.582031 427.550781 287.101562 427.496094 Z M 287.101562 427.496094 " fill-opacity="1" fill-rule="nonzero"/><path fill="#7985a1" d="M 283.828125 237.875 C 284.621094 226.046875 287.074219 214.621094 291.160156 203.710938 L 276.066406 202.003906 C 271.980469 213.957031 269.539062 226.445312 268.890625 239.070312 C 268.109375 254.347656 269.855469 269.382812 273.882812 283.628906 L 288.429688 280.765625 C 284.453125 267.105469 282.824219 252.613281 283.828125 237.875 Z M 519.039062 318.859375 C 518.519531 318.320312 518 317.796875 517.425781 317.300781 C 514.742188 314.960938 511.675781 313.335938 508.480469 312.429688 C 500.609375 324.699219 490.859375 335.121094 479.832031 343.503906 C 468.3125 352.28125 455.421875 358.84375 441.816406 363.042969 C 418.539062 370.242188 393.179688 370.503906 369.195312 362.988281 L 364.023438 376.90625 C 389.847656 385.148438 417.113281 385.347656 442.429688 378.296875 C 459.371094 373.597656 475.421875 365.648438 489.589844 354.71875 C 501.304688 345.667969 511.726562 334.5625 520.242188 321.550781 C 519.902344 320.632812 519.503906 319.742188 519.039062 318.859375 Z M 519.039062 318.859375 " fill-opacity="1" fill-rule="nonzero"/></svg>