<svg xmlns="http://www.w3.org/2000/svg" xmlns:xlink="http://www.w3.org/1999/xlink" width="1080" zoomAndPan="magnify" viewBox="0 0 810 809.999993" height="1080" preserveAspectRatio="xMidYMid meet" version="1.0"><defs><clipPath id="c3c37cba23"><path d="M 301 542 L 440 542 L 440 769.5 L 301 769.5 Z M 301 542 " clip-rule="nonzero"/></clipPath><clipPath id="c0d414f3b4"><path d="M 353 543 L 806.398438 543 L 806.398438 769.5 L 353 769.5 Z M 353 543 " clip-rule="nonzero"/></clipPath><clipPath id="7b287c4028"><path d="M 250 40.5 L 654 40.5 L 654 610 L 250 610 Z M 250 40.5 " clip-rule="nonzero"/></clipPath></defs><path fill="#71e57c" d="M 235.242188 627.085938 L 235.242188 490.796875 C 206.34375 487.8125 179.210938 479.085938 155.316406 465.261719 C 86.722656 499.632812 38.105469 567.929688 31.414062 648.175781 L 311.441406 648.175781 C 315.359375 640.507812 319.273438 633.5625 323.1875 627.085938 Z M 235.242188 627.085938 " fill-opacity="1" fill-rule="nonzero"/><path fill="#71e57c" d="M 235.242188 126.730469 C 154.515625 137.105469 92.097656 205.902344 92.097656 289.417969 C 92.097656 372.9375 154.515625 441.730469 235.242188 452.109375 Z M 235.242188 126.730469 " fill-opacity="1" fill-rule="nonzero"/><g clip-path="url(#c3c37cba23)"><path fill="#231f20" d="M 329.125 757.726562 L 313.640625 757.726562 C 314.316406 730.21875 319.609375 703.335938 329.460938 677.722656 C 337.613281 656.210938 348.957031 635.921875 363.15625 617.414062 C 382.621094 592.039062 407.957031 570.144531 436.40625 554.070312 C 439.261719 552.46875 440.257812 548.859375 438.652344 546.003906 C 437.03125 543.148438 433.421875 542.136719 430.566406 543.757812 C 400.320312 560.839844 374.46875 583.183594 353.738281 610.179688 C 338.832031 629.601562 326.925781 650.917969 318.375 673.488281 C 307.320312 702.261719 301.703125 732.609375 301.703125 763.644531 C 301.703125 766.917969 304.351562 769.5625 307.625 769.5625 L 329.09375 769.5625 C 332.367188 769.5625 335.015625 766.917969 335.015625 763.644531 C 335.015625 760.375 332.367188 757.726562 329.09375 757.726562 Z M 329.125 757.726562 " fill-opacity="1" fill-rule="nonzero"/></g><g clip-path="url(#c0d414f3b4)"><path fill="#231f20" d="M 789.636719 673.726562 C 781.085938 651.128906 769.179688 629.84375 754.253906 610.386719 C 733.234375 582.992188 707.386719 560.566406 677.414062 543.773438 C 674.558594 542.203125 670.945312 543.195312 669.34375 546.035156 C 667.738281 548.890625 668.75 552.5 671.605469 554.105469 C 700.148438 570.128906 724.796875 591.476562 744.851562 617.605469 C 759.054688 636.128906 770.398438 656.421875 778.550781 677.945312 C 788.367188 703.511719 793.679688 730.332031 794.355469 757.726562 L 359.882812 757.726562 C 356.609375 757.726562 353.964844 760.375 353.964844 763.644531 C 353.964844 766.917969 356.609375 769.5625 359.882812 769.5625 L 800.371094 769.5625 C 803.644531 769.5625 806.292969 766.917969 806.292969 763.644531 C 806.292969 732.738281 800.691406 702.46875 789.636719 673.710938 Z M 789.636719 673.726562 " fill-opacity="1" fill-rule="nonzero"/></g><path fill="#231f20" d="M 363.335938 385.914062 C 363.335938 491.035156 448.890625 576.558594 554.054688 576.558594 C 659.21875 576.558594 744.773438 491.035156 744.773438 385.914062 C 744.773438 280.789062 659.21875 195.28125 554.054688 195.28125 C 448.890625 195.28125 363.335938 280.804688 363.335938 385.914062 Z M 732.898438 385.914062 C 732.898438 484.507812 652.671875 564.707031 554.039062 564.707031 C 455.40625 564.707031 375.175781 484.507812 375.175781 385.914062 C 375.175781 287.316406 455.40625 207.136719 554.039062 207.136719 C 652.671875 207.136719 732.898438 287.332031 732.898438 385.914062 Z M 732.898438 385.914062 " fill-opacity="1" fill-rule="nonzero"/><path fill="#231f20" d="M 31.414062 661.214844 L 15.929688 661.214844 C 16.601562 633.707031 21.898438 606.84375 31.75 581.210938 C 39.902344 559.734375 51.246094 539.445312 65.445312 520.902344 C 85.183594 495.191406 109.828125 473.890625 138.710938 457.5625 C 141.566406 455.957031 142.5625 452.347656 140.957031 449.492188 C 139.335938 446.640625 135.695312 445.628906 132.871094 447.25 C 102.59375 464.347656 76.742188 486.707031 56.042969 513.667969 C 41.136719 533.125 29.230469 554.425781 20.679688 576.976562 C 9.605469 605.800781 4.007812 636.128906 4.007812 667.152344 C 4.007812 670.421875 6.65625 673.070312 9.929688 673.070312 L 31.398438 673.070312 C 34.671875 673.070312 37.316406 670.421875 37.316406 667.152344 C 37.316406 663.878906 34.671875 661.234375 31.398438 661.234375 Z M 31.414062 661.214844 " fill-opacity="1" fill-rule="nonzero"/><path fill="#231f20" d="M 293.871094 661.214844 L 62.171875 661.214844 C 58.898438 661.214844 56.253906 663.863281 56.253906 667.136719 C 56.253906 670.40625 58.898438 673.054688 62.171875 673.054688 L 293.871094 673.054688 C 297.144531 673.054688 299.792969 670.40625 299.792969 667.136719 C 299.792969 663.863281 297.144531 661.214844 293.871094 661.214844 Z M 293.871094 661.214844 " fill-opacity="1" fill-rule="nonzero"/><path fill="#231f20" d="M 234.566406 478.832031 C 234.792969 478.832031 235.015625 478.863281 235.242188 478.863281 C 238.210938 478.863281 240.777344 476.617188 241.128906 473.601562 C 241.5 470.363281 239.15625 467.410156 235.914062 467.042969 C 145.609375 456.777344 77.496094 380.410156 77.496094 289.402344 C 77.496094 198.394531 140.78125 126.761719 227.972656 112.855469 C 231.214844 112.339844 233.414062 109.308594 232.882812 106.085938 C 232.351562 102.863281 229.320312 100.695312 226.09375 101.160156 C 133.125 115.980469 65.640625 195.136719 65.640625 289.402344 C 65.640625 383.667969 138.261719 467.875 234.566406 478.832031 Z M 234.566406 478.832031 " fill-opacity="1" fill-rule="nonzero"/><g clip-path="url(#7b287c4028)"><path fill="#231f20" d="M 256.421875 609.136719 L 339.1875 609.136719 C 342.460938 609.136719 345.105469 606.488281 345.105469 603.21875 C 345.105469 599.945312 342.460938 597.296875 339.1875 597.296875 L 262.359375 597.296875 L 262.359375 52.433594 L 559.378906 52.433594 L 559.378906 115.210938 C 559.378906 118.4375 561.964844 121.082031 565.1875 121.132812 L 641.183594 122.589844 L 641.550781 193.003906 C 641.550781 196.261719 644.214844 198.90625 647.472656 198.90625 L 647.503906 198.90625 C 650.777344 198.90625 653.410156 196.230469 653.410156 192.957031 L 653.007812 116.753906 C 653.007812 116.414062 652.847656 116.125 652.796875 115.804688 C 652.75 115.515625 652.703125 115.261719 652.621094 114.988281 C 652.285156 113.960938 651.789062 113 650.953125 112.292969 L 569.183594 42.007812 C 568.171875 41.140625 566.9375 40.773438 565.65625 40.691406 C 565.527344 40.691406 565.445312 40.5625 565.316406 40.5625 L 256.4375 40.5625 C 253.164062 40.5625 250.515625 43.210938 250.515625 46.484375 L 250.515625 603.203125 C 250.515625 606.472656 253.164062 609.121094 256.4375 609.121094 Z M 571.238281 109.390625 L 571.238281 59.425781 L 630.71875 110.5625 L 571.238281 109.40625 Z M 571.238281 109.390625 " fill-opacity="1" fill-rule="nonzero"/></g><path fill="#231f20" d="M 301.445312 222.40625 L 378.480469 222.40625 C 381.753906 222.40625 384.402344 219.757812 384.402344 216.488281 L 384.402344 139.480469 C 384.402344 136.207031 381.753906 133.5625 378.480469 133.5625 L 301.445312 133.5625 C 298.171875 133.5625 295.523438 136.207031 295.523438 139.480469 L 295.523438 216.488281 C 295.523438 219.757812 298.171875 222.40625 301.445312 222.40625 Z M 307.367188 145.398438 L 372.542969 145.398438 L 372.542969 210.550781 L 307.367188 210.550781 Z M 307.367188 145.398438 " fill-opacity="1" fill-rule="nonzero"/><path fill="#231f20" d="M 295.523438 363.34375 C 295.523438 366.617188 298.171875 369.265625 301.445312 369.265625 L 345.683594 369.265625 C 348.957031 369.265625 351.605469 366.617188 351.605469 363.34375 C 351.605469 360.074219 348.957031 357.425781 345.683594 357.425781 L 307.367188 357.425781 L 307.367188 292.289062 L 370.539062 292.289062 C 373.8125 292.289062 376.460938 289.644531 376.460938 286.371094 C 376.460938 283.097656 373.8125 280.453125 370.539062 280.453125 L 301.429688 280.453125 C 298.15625 280.453125 295.507812 283.097656 295.507812 286.371094 L 295.507812 363.359375 Z M 295.523438 363.34375 " fill-opacity="1" fill-rule="nonzero"/><path fill="#231f20" d="M 295.523438 510.234375 C 295.523438 513.507812 298.171875 516.15625 301.445312 516.15625 L 378.480469 516.15625 C 381.753906 516.15625 384.402344 513.507812 384.402344 510.234375 C 384.402344 506.964844 381.753906 504.316406 378.480469 504.316406 L 307.382812 504.316406 L 307.382812 439.179688 L 350.433594 439.179688 C 353.707031 439.179688 356.355469 436.535156 356.355469 433.261719 C 356.355469 429.988281 353.707031 427.34375 350.433594 427.34375 L 301.445312 427.34375 C 298.171875 427.34375 295.523438 429.988281 295.523438 433.261719 L 295.523438 510.25 Z M 295.523438 510.234375 " fill-opacity="1" fill-rule="nonzero"/><path fill="#231f20" d="M 595.324219 179.578125 C 598.597656 179.578125 601.242188 176.933594 601.242188 173.660156 C 601.242188 170.390625 598.597656 167.742188 595.324219 167.742188 L 405.148438 167.742188 C 401.875 167.742188 399.230469 170.390625 399.230469 173.660156 C 399.230469 176.933594 401.875 179.578125 405.148438 179.578125 Z M 595.324219 179.578125 " fill-opacity="1" fill-rule="nonzero"/><path fill="#71e57c" d="M 336.21875 194.960938 C 334.996094 194.960938 333.777344 194.6875 332.640625 194.109375 L 279.71875 167.277344 C 275.820312 165.304688 274.265625 160.554688 276.253906 156.644531 C 278.226562 152.746094 282.976562 151.222656 286.875 153.179688 L 335.671875 177.925781 L 421.886719 120.167969 C 425.496094 117.714844 430.421875 118.710938 432.859375 122.335938 C 435.285156 125.960938 434.320312 130.867188 430.695312 133.289062 L 340.628906 193.628906 C 339.296875 194.527344 337.773438 194.976562 336.234375 194.976562 Z M 336.21875 194.960938 " fill-opacity="1" fill-rule="nonzero"/></svg>