<svg xmlns="http://www.w3.org/2000/svg" xmlns:xlink="http://www.w3.org/1999/xlink" width="1080" zoomAndPan="magnify" viewBox="0 0 810 809.999993" height="1080" preserveAspectRatio="xMidYMid meet" version="1.0"><defs><clipPath id="c7cfdc153a"><path d="M 249 89 L 803 89 L 803 752.042969 L 249 752.042969 Z M 249 89 " clip-rule="nonzero"/></clipPath><clipPath id="5cb7b7eaa8"><path d="M 0 58.292969 L 810 58.292969 L 810 505 L 0 505 Z M 0 58.292969 " clip-rule="nonzero"/></clipPath><clipPath id="d626841d71"><path d="M 0 58.292969 L 810 58.292969 L 810 504 L 0 504 Z M 0 58.292969 " clip-rule="nonzero"/></clipPath></defs><g clip-path="url(#c7cfdc153a)"><path fill="#000000" d="M 249.039062 518.347656 L 802.820312 89.167969 L 539.714844 752.011719 Z M 249.039062 518.347656 " fill-opacity="1" fill-rule="nonzero"/></g><g clip-path="url(#5cb7b7eaa8)"><path fill="#000000" d="M 229.820312 504.199219 L 809.976562 58.289062 L 0.00390625 319.453125 Z M 229.820312 504.199219 " fill-opacity="1" fill-rule="nonzero"/></g><path fill="#000000" d="M 249.039062 550.226562 L 353.339844 631.023438 L 249.039062 731.09375 Z M 249.039062 550.226562 " fill-opacity="1" fill-rule="nonzero"/><path fill="#ffffff" d="M 249.039062 518.121094 L 802.820312 89.152344 L 539.714844 751.671875 Z M 249.039062 518.121094 " fill-opacity="1" fill-rule="nonzero"/><g clip-path="url(#d626841d71)"><path fill="#ffffff" d="M 229.820312 503.980469 L 809.976562 58.289062 L 0.00390625 319.328125 Z M 229.820312 503.980469 " fill-opacity="1" fill-rule="nonzero"/></g><path fill="#ffffff" d="M 249.039062 549.984375 L 353.339844 630.742188 L 249.039062 730.765625 Z M 249.039062 549.984375 " fill-opacity="1" fill-rule="nonzero"/></svg>