<svg xmlns="http://www.w3.org/2000/svg" xmlns:xlink="http://www.w3.org/1999/xlink" width="1080" zoomAndPan="magnify" viewBox="0 0 810 809.999993" height="1080" preserveAspectRatio="xMidYMid meet" version="1.0"><path fill="#f0b16e" d="M 138.382812 319.441406 C 116.429688 302.140625 96.609375 281.167969 77.128906 258.039062 C 69.070312 248.472656 64.023438 226.375 68.460938 214.679688 C 78.113281 189.246094 85.796875 162.648438 110.609375 144.667969 C 122.492188 136.058594 132.308594 128.523438 145.5625 134.882812 C 157.804688 140.757812 164.90625 159.957031 160.402344 172.769531 C 136.867188 239.6875 161.992188 223.742188 138.382812 319.441406 Z M 138.382812 319.441406 " fill-opacity="1" fill-rule="evenodd"/><path fill="#f0b16e" d="M 222.457031 387.925781 L 263.648438 724.148438 L 222.867188 723.265625 L 176.085938 460.113281 Z M 222.457031 387.925781 " fill-opacity="1" fill-rule="evenodd"/><path fill="#cf8c48" d="M 203.046875 611.769531 L 176.085938 460.113281 L 178.78125 455.917969 L 225.652344 473.761719 Z M 203.046875 611.769531 " fill-opacity="1" fill-rule="evenodd"/><path fill="#f0b16e" d="M 126.660156 468.058594 L 119.597656 741.8125 L 159.316406 759.472656 L 202.328125 496.863281 Z M 126.660156 468.058594 " fill-opacity="1" fill-rule="evenodd"/><path fill="#4187b5" d="M 255.867188 181.191406 L 219.828125 133.125 C 213.5 124.683594 205.09375 119.640625 194.667969 118.039062 C 183.496094 116.320312 172.367188 116.015625 161.425781 117.492188 C 143.871094 119.855469 130.484375 132.542969 127.035156 149.777344 C 121.585938 177.027344 119.148438 204.511719 118.914062 232.171875 C 118.605469 268.046875 121.996094 304.21875 127.304688 340.558594 C 124.695312 353.398438 148.503906 374.972656 147.050781 387.925781 L 233.726562 379.253906 L 250.875 329.964844 L 245.578125 213.398438 Z M 255.867188 181.191406 " fill-opacity="1" fill-rule="evenodd"/><path fill="#60b7fe" d="M 127.304688 340.558594 C 117.289062 389.894531 116.707031 440.167969 118.480469 490.683594 C 144.964844 497.433594 172.902344 499.535156 202.328125 496.863281 C 228.03125 497.96875 229.292969 502.1875 250.875 494.464844 L 250.875 329.964844 C 216.351562 344.445312 176.101562 349.519531 127.304688 340.558594 Z M 127.304688 340.558594 " fill-opacity="1" fill-rule="evenodd"/><path fill="#f0b16e" d="M 361.265625 84.664062 C 338.207031 89.832031 333.027344 123.3125 352.453125 139.191406 C 387.628906 167.960938 421.21875 211.175781 459.082031 240.507812 C 473.082031 251.355469 497.25 237.542969 510.753906 226.078125 L 561.082031 183.351562 L 589.089844 110.429688 L 556.140625 100.410156 C 522.902344 118.335938 498.550781 147.457031 476.789062 179.839844 L 394.1875 125.785156 C 400.855469 103.566406 382.5 79.910156 361.265625 84.664062 Z M 361.265625 84.664062 " fill-opacity="1" fill-rule="evenodd"/><path fill="#cf8c48" d="M 346.910156 133.296875 C 348.527344 135.53125 350.398438 137.511719 352.453125 139.191406 C 361.121094 146.28125 369.691406 154.246094 378.25 162.664062 C 381.824219 156.925781 385.359375 151.039062 388.867188 145.027344 C 395.054688 142.925781 400.289062 138.210938 403.644531 131.976562 L 394.191406 125.789062 C 395.761719 120.550781 396.039062 114.699219 394.714844 108.789062 C 392.28125 97.917969 385.039062 89.535156 376.191406 85.960938 C 364.390625 88.863281 355.53125 101.105469 355.53125 115.769531 C 355.53125 118.527344 355.84375 121.199219 356.429688 123.738281 Z M 346.910156 133.296875 " fill-opacity="1" fill-rule="evenodd"/><path fill="#cf8c48" d="M 222.453125 89.617188 C 222.453125 91.039062 222.386719 92.460938 222.246094 93.875 C 222.105469 95.292969 221.898438 96.695312 221.621094 98.09375 C 221.34375 99.488281 220.996094 100.867188 220.585938 102.226562 C 220.171875 103.589844 219.695312 104.925781 219.148438 106.242188 C 218.605469 107.554688 218 108.839844 217.328125 110.09375 C 216.65625 111.347656 215.925781 112.566406 215.136719 113.75 C 214.347656 114.933594 213.5 116.074219 212.597656 117.175781 C 211.699219 118.273438 210.742188 119.328125 209.738281 120.332031 C 208.734375 121.339844 207.679688 122.292969 206.582031 123.195312 C 205.480469 124.097656 204.339844 124.945312 203.160156 125.734375 C 201.976562 126.527344 200.757812 127.257812 199.503906 127.925781 C 198.25 128.597656 196.964844 129.207031 195.652344 129.75 C 194.339844 130.292969 193 130.773438 191.640625 131.1875 C 190.28125 131.597656 188.902344 131.945312 187.507812 132.222656 C 186.113281 132.5 184.707031 132.707031 183.292969 132.847656 C 181.878906 132.988281 180.460938 133.054688 179.039062 133.054688 C 177.613281 133.054688 176.195312 132.988281 174.78125 132.847656 C 173.367188 132.707031 171.960938 132.5 170.566406 132.222656 C 169.171875 131.945312 167.792969 131.597656 166.433594 131.1875 C 165.074219 130.773438 163.734375 130.292969 162.421875 129.75 C 161.109375 129.207031 159.824219 128.597656 158.570312 127.925781 C 157.316406 127.257812 156.097656 126.527344 154.914062 125.734375 C 153.734375 124.945312 152.59375 124.097656 151.492188 123.195312 C 150.394531 122.292969 149.34375 121.339844 148.335938 120.332031 C 147.332031 119.328125 146.378906 118.273438 145.476562 117.175781 C 144.574219 116.074219 143.726562 114.933594 142.9375 113.75 C 142.148438 112.566406 141.417969 111.347656 140.746094 110.09375 C 140.074219 108.839844 139.46875 107.554688 138.925781 106.242188 C 138.378906 104.925781 137.902344 103.589844 137.488281 102.226562 C 137.078125 100.867188 136.730469 99.488281 136.453125 98.09375 C 136.175781 96.695312 135.96875 95.292969 135.828125 93.875 C 135.6875 92.460938 135.621094 91.039062 135.621094 89.617188 C 135.621094 88.195312 135.6875 86.777344 135.828125 85.359375 C 135.96875 83.945312 136.175781 82.539062 136.453125 81.144531 C 136.730469 79.746094 137.078125 78.371094 137.488281 77.007812 C 137.902344 75.648438 138.378906 74.308594 138.925781 72.996094 C 139.46875 71.679688 140.074219 70.394531 140.746094 69.140625 C 141.417969 67.886719 142.148438 66.667969 142.9375 65.484375 C 143.726562 64.300781 144.574219 63.160156 145.476562 62.058594 C 146.378906 60.960938 147.332031 59.90625 148.335938 58.902344 C 149.34375 57.894531 150.394531 56.941406 151.492188 56.039062 C 152.59375 55.136719 153.734375 54.289062 154.914062 53.5 C 156.097656 52.710938 157.316406 51.980469 158.570312 51.308594 C 159.824219 50.636719 161.109375 50.03125 162.421875 49.484375 C 163.734375 48.941406 165.074219 48.460938 166.433594 48.050781 C 167.792969 47.636719 169.171875 47.292969 170.566406 47.015625 C 171.960938 46.734375 173.367188 46.527344 174.78125 46.386719 C 176.195312 46.25 177.613281 46.179688 179.039062 46.179688 C 180.460938 46.179688 181.878906 46.25 183.292969 46.386719 C 184.707031 46.527344 186.113281 46.734375 187.507812 47.015625 C 188.902344 47.292969 190.28125 47.636719 191.640625 48.050781 C 193 48.460938 194.339844 48.941406 195.652344 49.484375 C 196.964844 50.03125 198.25 50.636719 199.503906 51.308594 C 200.757812 51.980469 201.976562 52.710938 203.160156 53.5 C 204.339844 54.289062 205.480469 55.136719 206.582031 56.039062 C 207.679688 56.941406 208.734375 57.894531 209.738281 58.902344 C 210.742188 59.90625 211.699219 60.960938 212.597656 62.058594 C 213.5 63.160156 214.347656 64.300781 215.136719 65.484375 C 215.925781 66.667969 216.65625 67.886719 217.328125 69.140625 C 218 70.394531 218.605469 71.679688 219.148438 72.996094 C 219.695312 74.308594 220.171875 75.648438 220.585938 77.007812 C 220.996094 78.371094 221.34375 79.746094 221.621094 81.144531 C 221.898438 82.539062 222.105469 83.945312 222.246094 85.359375 C 222.386719 86.777344 222.453125 88.195312 222.453125 89.617188 Z M 222.453125 89.617188 " fill-opacity="1" fill-rule="nonzero"/><path fill="#f0b16e" d="M 170.675781 132.25 C 150.699219 128.351562 135.621094 110.746094 135.621094 89.621094 C 135.621094 68.492188 150.695312 50.886719 170.675781 46.988281 C 190.652344 50.886719 205.730469 68.492188 205.730469 89.621094 C 205.730469 110.746094 190.652344 128.347656 170.675781 132.25 Z M 170.675781 132.25 " fill-opacity="1" fill-rule="evenodd"/><path fill="#f0b16e" d="M 561.90625 411.136719 L 541.304688 511.164062 L 575.832031 744.773438 L 614.871094 730.578125 L 605.054688 526.058594 L 606.734375 413.429688 Z M 561.90625 411.136719 " fill-opacity="1" fill-rule="evenodd"/><path fill="#60b7fe" d="M 212.085938 711.28125 L 212.085938 729.710938 C 212.085938 739.78125 220.292969 747.992188 230.359375 747.992188 L 304.769531 747.992188 C 310.523438 747.992188 315.214844 743.300781 315.214844 737.546875 C 315.214844 731.832031 315.578125 725.964844 308.542969 722.589844 L 262.070312 700.296875 L 222.382812 700.835938 C 216.683594 700.914062 212.085938 705.578125 212.085938 711.28125 Z M 212.085938 711.28125 " fill-opacity="1" fill-rule="evenodd"/><path fill="#f0b16e" d="M 698.136719 446.957031 L 728.144531 725.125 L 686.660156 737.488281 L 625.757812 446.957031 Z M 698.136719 446.957031 " fill-opacity="1" fill-rule="evenodd"/><path fill="#fa6e85" d="M 659.304688 95.824219 C 648.394531 86.089844 635.542969 79.9375 620.574219 77.695312 C 589.738281 73.082031 568 79.285156 552.132812 106.722656 C 534.386719 137.40625 543.160156 198.863281 545.902344 233.921875 C 548.46875 266.6875 552.089844 299.457031 556.453125 332.222656 C 552.117188 346.925781 582.480469 345.382812 580.425781 361.910156 L 665.695312 373.980469 C 662.253906 356.960938 695.34375 345.496094 690.3125 329.125 C 692.480469 241.792969 677.21875 167.796875 659.304688 95.824219 Z M 659.304688 95.824219 " fill-opacity="1" fill-rule="evenodd"/><path fill="#4187b5" d="M 556.453125 332.226562 C 543.757812 375.257812 532.195312 465.15625 531.402344 517.714844 C 553.363281 520.046875 586.148438 533.832031 608.503906 527.648438 L 616.070312 438.019531 C 618.84375 452.445312 635.289062 510.121094 639.042969 526.058594 L 726.132812 511.246094 C 721.722656 460.226562 704.734375 376.023438 690.3125 329.128906 C 651.238281 339.476562 605.746094 338.226562 556.453125 332.226562 Z M 556.453125 332.226562 " fill-opacity="1" fill-rule="evenodd"/><path fill="#f0b16e" d="M 597.34375 273.765625 C 599.984375 288.25 606.941406 294.773438 623.253906 291.792969 C 630.753906 290.425781 637.144531 286.691406 641.609375 281.648438 C 666.625 263.335938 688.742188 240.25 710.4375 214.492188 C 718.492188 204.925781 723.542969 182.828125 719.105469 171.132812 C 709.453125 145.699219 701.769531 119.101562 676.957031 101.125 C 665.066406 92.507812 655.261719 84.980469 642 91.339844 C 629.761719 97.210938 622.660156 116.410156 627.164062 129.226562 C 635.683594 153.445312 648.945312 171.261719 663.835938 193.265625 C 647.417969 202.835938 636.761719 233.265625 625.546875 249.015625 C 620.515625 247.285156 621.332031 247.375 610.277344 249.390625 C 599.222656 251.410156 594.703125 259.28125 597.34375 273.765625 Z M 597.34375 273.765625 " fill-opacity="1" fill-rule="evenodd"/><path fill="#fa6e85" d="M 621.152344 724.734375 L 622.542969 743.109375 C 623.300781 753.152344 615.738281 761.960938 605.699219 762.722656 L 531.5 768.34375 C 525.765625 768.777344 520.730469 764.449219 520.300781 758.710938 C 519.867188 753.011719 519.058594 747.191406 525.820312 743.296875 L 570.480469 717.554688 L 610.089844 715.09375 C 615.78125 714.742188 620.722656 719.046875 621.152344 724.734375 Z M 621.152344 724.734375 " fill-opacity="1" fill-rule="evenodd"/><path fill="#fa6e85" d="M 730.71875 708.894531 L 740.464844 724.527344 C 745.792969 733.074219 743.167969 744.386719 734.628906 749.71875 L 671.492188 789.117188 C 666.609375 792.164062 660.148438 790.664062 657.101562 785.78125 C 654.078125 780.933594 650.667969 776.152344 654.851562 769.5625 L 682.492188 726.039062 L 716.449219 705.484375 C 721.328125 702.53125 727.703125 704.054688 730.71875 708.894531 Z M 730.71875 708.894531 " fill-opacity="1" fill-rule="evenodd"/><path fill="#f0b16e" d="M 372.429688 146.617188 C 346.082031 191.746094 318.148438 230.078125 285.730469 249.179688 C 275.480469 255.222656 250.011719 255.335938 241.492188 247.023438 L 198.9375 205.492188 C 201.011719 184.472656 208.058594 164.121094 225.058594 145.121094 C 249.578125 158.554688 264.785156 173.308594 277.066406 188.476562 L 339.992188 125.328125 C 335.632812 106.464844 347.5625 86.894531 365.144531 86.894531 C 379.53125 86.894531 391.195312 100.535156 391.195312 117.359375 C 391.195312 131.230469 383.269531 142.929688 372.429688 146.617188 Z M 372.429688 146.617188 " fill-opacity="1" fill-rule="evenodd"/><path fill="#60b7fe" d="M 119.988281 720.152344 L 108.617188 734.648438 C 102.402344 742.570312 103.792969 754.101562 111.710938 760.320312 L 170.25 806.28125 C 174.777344 809.832031 181.363281 809.039062 184.914062 804.511719 L 187.601562 801.085938 C 190.460938 797.441406 190.941406 792.78125 188.894531 788.628906 L 166.085938 742.386719 L 134.535156 718.296875 C 130.003906 714.835938 123.507812 715.664062 119.988281 720.152344 Z M 119.988281 720.152344 " fill-opacity="1" fill-rule="evenodd"/><path fill="#cf8c48" d="M 637.632812 43.457031 C 637.632812 44.878906 637.5625 46.296875 637.425781 47.714844 C 637.285156 49.128906 637.078125 50.535156 636.800781 51.929688 C 636.523438 53.324219 636.175781 54.703125 635.765625 56.066406 C 635.351562 57.425781 634.871094 58.765625 634.328125 60.078125 C 633.785156 61.394531 633.175781 62.679688 632.507812 63.933594 C 631.835938 65.1875 631.105469 66.40625 630.316406 67.589844 C 629.527344 68.773438 628.679688 69.914062 627.777344 71.011719 C 626.875 72.113281 625.921875 73.164062 624.917969 74.171875 C 623.910156 75.175781 622.859375 76.132812 621.757812 77.035156 C 620.660156 77.9375 619.519531 78.785156 618.335938 79.574219 C 617.15625 80.363281 615.9375 81.09375 614.683594 81.765625 C 613.429688 82.4375 612.144531 83.042969 610.832031 83.589844 C 609.515625 84.132812 608.179688 84.609375 606.820312 85.023438 C 605.457031 85.4375 604.082031 85.78125 602.6875 86.058594 C 601.292969 86.335938 599.886719 86.546875 598.472656 86.683594 C 597.054688 86.824219 595.636719 86.894531 594.214844 86.894531 C 592.792969 86.894531 591.375 86.824219 589.960938 86.683594 C 588.546875 86.546875 587.140625 86.335938 585.746094 86.058594 C 584.351562 85.78125 582.972656 85.4375 581.613281 85.023438 C 580.25 84.609375 578.914062 84.132812 577.601562 83.589844 C 576.285156 83.042969 575.003906 82.4375 573.75 81.765625 C 572.496094 81.09375 571.277344 80.363281 570.09375 79.574219 C 568.910156 78.785156 567.769531 77.9375 566.671875 77.035156 C 565.574219 76.132812 564.519531 75.175781 563.515625 74.171875 C 562.507812 73.164062 561.554688 72.113281 560.652344 71.011719 C 559.75 69.914062 558.90625 68.773438 558.117188 67.589844 C 557.324219 66.40625 556.59375 65.1875 555.925781 63.933594 C 555.253906 62.679688 554.648438 61.394531 554.101562 60.078125 C 553.558594 58.765625 553.082031 57.425781 552.667969 56.066406 C 552.253906 54.703125 551.910156 53.324219 551.632812 51.929688 C 551.355469 50.535156 551.148438 49.128906 551.007812 47.714844 C 550.867188 46.296875 550.796875 44.878906 550.796875 43.457031 C 550.796875 42.035156 550.867188 40.613281 551.007812 39.199219 C 551.148438 37.78125 551.355469 36.375 551.632812 34.980469 C 551.910156 33.585938 552.253906 32.207031 552.667969 30.847656 C 553.082031 29.484375 553.558594 28.148438 554.101562 26.832031 C 554.648438 25.519531 555.253906 24.234375 555.925781 22.980469 C 556.59375 21.722656 557.324219 20.503906 558.117188 19.324219 C 558.90625 18.140625 559.75 17 560.652344 15.898438 C 561.554688 14.800781 562.507812 13.746094 563.515625 12.742188 C 564.519531 11.734375 565.574219 10.78125 566.671875 9.878906 C 567.769531 8.976562 568.910156 8.128906 570.09375 7.339844 C 571.277344 6.546875 572.496094 5.816406 573.75 5.148438 C 575.003906 4.476562 576.285156 3.867188 577.601562 3.324219 C 578.914062 2.78125 580.25 2.300781 581.613281 1.886719 C 582.972656 1.476562 584.351562 1.128906 585.746094 0.851562 C 587.140625 0.574219 588.546875 0.367188 589.960938 0.226562 C 591.375 0.0859375 592.792969 0.015625 594.214844 0.015625 C 595.636719 0.015625 597.054688 0.0859375 598.472656 0.226562 C 599.886719 0.367188 601.292969 0.574219 602.6875 0.851562 C 604.082031 1.128906 605.457031 1.476562 606.820312 1.886719 C 608.179688 2.300781 609.515625 2.78125 610.832031 3.324219 C 612.144531 3.867188 613.429688 4.476562 614.683594 5.148438 C 615.9375 5.816406 617.15625 6.546875 618.335938 7.339844 C 619.519531 8.128906 620.660156 8.976562 621.757812 9.878906 C 622.859375 10.78125 623.910156 11.734375 624.917969 12.742188 C 625.921875 13.746094 626.875 14.800781 627.777344 15.898438 C 628.679688 17 629.527344 18.140625 630.316406 19.324219 C 631.105469 20.503906 631.835938 21.722656 632.507812 22.980469 C 633.175781 24.234375 633.785156 25.519531 634.328125 26.832031 C 634.871094 28.148438 635.351562 29.484375 635.765625 30.847656 C 636.175781 32.207031 636.523438 33.585938 636.800781 34.980469 C 637.078125 36.375 637.285156 37.78125 637.425781 39.199219 C 637.5625 40.613281 637.632812 42.035156 637.632812 43.457031 Z M 637.632812 43.457031 " fill-opacity="1" fill-rule="nonzero"/><path fill="#f0b16e" d="M 585.851562 86.085938 C 565.875 82.1875 550.796875 64.582031 550.796875 43.457031 C 550.796875 22.328125 565.875 4.726562 585.851562 0.824219 C 605.828125 4.726562 620.90625 22.328125 620.90625 43.457031 C 620.90625 64.582031 605.832031 82.1875 585.851562 86.085938 Z M 585.851562 86.085938 " fill-opacity="1" fill-rule="evenodd"/></svg>