<svg xmlns="http://www.w3.org/2000/svg" xmlns:xlink="http://www.w3.org/1999/xlink" width="1080" zoomAndPan="magnify" viewBox="0 0 810 809.999993" height="1080" preserveAspectRatio="xMidYMid meet" version="1.0"><path fill="#000000" d="M 799.980469 594.621094 C 805.894531 610.421875 809.34375 627.394531 809.867188 645.148438 C 809.996094 646.839844 809.996094 648.53125 809.996094 650.285156 C 809.996094 738.464844 738.460938 809.996094 650.28125 809.996094 C 291.132812 809.996094 0 518.863281 0 159.710938 C 0 71.535156 71.53125 0 159.710938 0 C 161.464844 0 163.15625 0 164.847656 0.128906 C 182.601562 0.652344 199.636719 4.101562 215.4375 10.015625 L 275.394531 269.609375 C 275.394531 269.738281 275.332031 269.804688 275.199219 269.867188 L 165.234375 319.289062 L 164.910156 319.421875 C 215.375 473.082031 336.914062 594.621094 490.574219 645.085938 L 490.707031 644.757812 L 540.191406 534.730469 L 799.980469 594.621094 " fill-opacity="1" fill-rule="nonzero"/><path fill="#ffffff" d="M 799.980469 594.621094 C 805.894531 610.421875 809.34375 627.394531 809.867188 645.148438 C 809.996094 646.839844 809.996094 648.53125 809.996094 650.285156 C 809.996094 738.464844 738.460938 809.996094 650.28125 809.996094 C 291.132812 809.996094 0 518.863281 0 159.710938 C 0 71.535156 71.53125 0 159.710938 0 C 161.464844 0 163.15625 0 164.847656 0.128906 C 182.601562 0.652344 199.636719 4.101562 215.4375 10.015625 L 275.394531 269.609375 C 275.394531 269.738281 275.332031 269.804688 275.199219 269.867188 L 165.234375 319.289062 L 164.910156 319.421875 C 215.375 473.082031 336.914062 594.621094 490.574219 645.085938 L 490.707031 644.757812 L 540.191406 534.730469 L 799.980469 594.621094 " fill-opacity="1" fill-rule="nonzero"/></svg>