<svg xmlns="http://www.w3.org/2000/svg" xmlns:xlink="http://www.w3.org/1999/xlink" width="1080" zoomAndPan="magnify" viewBox="0 0 810 809.999993" height="1080" preserveAspectRatio="xMidYMid meet" version="1.0"><defs><clipPath id="4dc4ee9ba5"><path d="M 58 12 L 752.171875 12 L 752.171875 800 L 58 800 Z M 58 12 " clip-rule="nonzero"/></clipPath></defs><g clip-path="url(#4dc4ee9ba5)"><path fill="#ffa500" d="M 728.523438 363.386719 L 131.488281 18.707031 C 116.320312 9.957031 97.679688 9.957031 82.53125 18.707031 C 67.382812 27.4375 58.054688 43.597656 58.054688 61.09375 L 58.054688 750.519531 C 58.054688 768.019531 67.382812 784.179688 82.53125 792.910156 C 90.105469 797.34375 98.558594 799.476562 107.007812 799.476562 C 115.460938 799.476562 123.914062 797.277344 131.488281 792.910156 L 728.523438 448.230469 C 743.707031 439.484375 752.988281 423.324219 752.988281 405.824219 C 752.988281 388.324219 743.675781 372.152344 728.523438 363.386719 Z M 728.523438 363.386719 " fill-opacity="1" fill-rule="nonzero"/><path fill="#ffa500" d="M 728.523438 363.386719 L 131.488281 18.707031 C 116.320312 9.957031 97.679688 9.957031 82.53125 18.707031 C 67.382812 27.4375 58.054688 43.597656 58.054688 61.09375 L 58.054688 750.519531 C 58.054688 768.019531 67.382812 784.179688 82.53125 792.910156 C 90.105469 797.34375 98.558594 799.476562 107.007812 799.476562 C 115.460938 799.476562 123.914062 797.277344 131.488281 792.910156 L 728.523438 448.230469 C 743.707031 439.484375 752.988281 423.324219 752.988281 405.824219 C 752.988281 388.324219 743.675781 372.152344 728.523438 363.386719 Z M 728.523438 363.386719 " fill-opacity="1" fill-rule="nonzero"/></g></svg>