<svg xmlns="http://www.w3.org/2000/svg" xmlns:xlink="http://www.w3.org/1999/xlink" width="1080" zoomAndPan="magnify" viewBox="0 0 810 809.999993" height="1080" preserveAspectRatio="xMidYMid meet" version="1.0"><path fill="#f6a100" d="M 233.6875 618.203125 C 204.976562 620.632812 179.804688 614.671875 157.058594 600.769531 C 123.050781 579.582031 119.960938 544.265625 150.433594 518.445312 C 183.117188 490.855469 220.214844 469.445312 256.652344 447.15625 C 335.710938 399.261719 414.988281 351.808594 494.707031 305.238281 C 517.230469 291.996094 541.300781 280.742188 568.90625 288.90625 C 599.378906 297.734375 606.445312 312.082031 592.3125 340.332031 C 572.4375 380.058594 542.625 412.503906 511.929688 443.625 C 453.851562 502.554688 387.164062 550.886719 318.042969 596.132812 C 291.984375 613.128906 262.835938 620.191406 233.6875 618.203125 Z M 233.6875 618.203125 " fill-opacity="1" fill-rule="nonzero"/><path fill="#f6a100" d="M 478.585938 810 C 449.4375 808.234375 423.820312 793.003906 407.921875 762.328125 C 402.398438 751.511719 403.28125 740.699219 407.921875 729.664062 C 414.765625 713.109375 424.042969 698.101562 433.976562 683.3125 C 496.253906 590.835938 551.679688 494.386719 608.210938 398.378906 C 618.589844 380.941406 628.96875 363.726562 643.324219 349.382812 C 660.769531 331.726562 684.621094 331.285156 704.050781 346.734375 C 715.757812 356.003906 713.546875 367.921875 710.457031 379.175781 C 704.496094 402.128906 696.542969 424.421875 690.359375 447.15625 C 661.433594 552.433594 622.789062 653.960938 569.125 749.304688 C 565.152344 756.589844 560.292969 763.429688 556.316406 770.492188 C 540.640625 799.847656 514.582031 809.558594 478.585938 810 Z M 478.585938 810 " fill-opacity="1" fill-rule="nonzero"/><path fill="#f6a100" d="M 450.320312 162.441406 C 483.222656 162.882812 511.710938 173.476562 535.339844 195.105469 C 557.199219 215.191406 554.550781 230.199219 527.167969 240.570312 C 480.351562 258.449219 430.886719 264.628906 382.304688 274.339844 C 342.335938 282.285156 302.363281 290.671875 261.730469 296.191406 C 216.242188 302.371094 173.398438 294.203125 133.207031 271.914062 C 122.167969 265.734375 112.671875 257.789062 106.046875 246.972656 C 94.785156 228.433594 100.304688 211.878906 120.179688 203.933594 C 137.847656 196.871094 156.835938 194.886719 175.828125 192.898438 C 267.695312 182.527344 359.339844 172.59375 450.320312 162.441406 Z M 450.320312 162.441406 " fill-opacity="1" fill-rule="nonzero"/><path fill="#f6a100" d="M 440.824219 109.472656 C 392.902344 110.132812 349.402344 98.878906 309.652344 74.378906 C 294.414062 65.109375 280.503906 53.851562 271.226562 38.402344 C 259.964844 19.863281 266.148438 6.402344 287.125 1.988281 C 299.050781 -0.441406 310.976562 0 322.460938 2.429688 C 372.144531 13.242188 421.613281 25.382812 466.660156 50.101562 C 478.144531 56.28125 488.742188 64.003906 496.914062 74.378906 C 510.828125 91.59375 507.074219 101.96875 485.429688 106.160156 C 470.195312 109.03125 454.957031 110.355469 440.824219 109.914062 Z M 440.824219 109.472656 " fill-opacity="1" fill-rule="nonzero"/><path fill="#f6a100" d="M 233.6875 618.203125 C 204.976562 620.632812 179.804688 614.671875 157.058594 600.769531 C 123.050781 579.582031 119.960938 544.265625 150.433594 518.445312 C 183.117188 490.855469 220.214844 469.445312 256.652344 447.15625 C 335.710938 399.261719 414.988281 351.808594 494.707031 305.238281 C 517.230469 291.996094 541.300781 280.742188 568.90625 288.90625 C 599.378906 297.734375 606.445312 312.082031 592.3125 340.332031 C 572.4375 380.058594 542.625 412.503906 511.929688 443.625 C 453.851562 502.554688 387.164062 550.886719 318.042969 596.132812 C 291.984375 613.128906 262.835938 620.191406 233.6875 618.203125 Z M 233.6875 618.203125 " fill-opacity="1" fill-rule="nonzero"/><path fill="#f6a100" d="M 478.585938 810 C 449.4375 808.234375 423.820312 793.003906 407.921875 762.328125 C 402.398438 751.511719 403.28125 740.699219 407.921875 729.664062 C 414.765625 713.109375 424.042969 698.101562 433.976562 683.3125 C 496.253906 590.835938 551.679688 494.386719 608.210938 398.378906 C 618.589844 380.941406 628.96875 363.726562 643.324219 349.382812 C 660.769531 331.726562 684.621094 331.285156 704.050781 346.734375 C 715.757812 356.003906 713.546875 367.921875 710.457031 379.175781 C 704.496094 402.128906 696.542969 424.421875 690.359375 447.15625 C 661.433594 552.433594 622.789062 653.960938 569.125 749.304688 C 565.152344 756.589844 560.292969 763.429688 556.316406 770.492188 C 540.640625 799.847656 514.582031 809.558594 478.585938 810 Z M 478.585938 810 " fill-opacity="1" fill-rule="nonzero"/><path fill="#f6a100" d="M 450.320312 162.441406 C 483.222656 162.882812 511.710938 173.476562 535.339844 195.105469 C 557.199219 215.191406 554.550781 230.199219 527.167969 240.570312 C 480.351562 258.449219 430.886719 264.628906 382.304688 274.339844 C 342.335938 282.285156 302.363281 290.671875 261.730469 296.191406 C 216.242188 302.371094 173.398438 294.203125 133.207031 271.914062 C 122.167969 265.734375 112.671875 257.789062 106.046875 246.972656 C 94.785156 228.433594 100.304688 211.878906 120.179688 203.933594 C 137.847656 196.871094 156.835938 194.886719 175.828125 192.898438 C 267.695312 182.527344 359.339844 172.59375 450.320312 162.441406 Z M 450.320312 162.441406 " fill-opacity="1" fill-rule="nonzero"/><path fill="#f6a100" d="M 440.824219 109.472656 C 392.902344 110.132812 349.402344 98.878906 309.652344 74.378906 C 294.414062 65.109375 280.503906 53.851562 271.226562 38.402344 C 259.964844 19.863281 266.148438 6.402344 287.125 1.988281 C 299.050781 -0.441406 310.976562 0 322.460938 2.429688 C 372.144531 13.242188 421.613281 25.382812 466.660156 50.101562 C 478.144531 56.28125 488.742188 64.003906 496.914062 74.378906 C 510.828125 91.59375 507.074219 101.96875 485.429688 106.160156 C 470.195312 109.03125 454.957031 110.355469 440.824219 109.914062 Z M 440.824219 109.472656 " fill-opacity="1" fill-rule="nonzero"/></svg>