<svg xmlns="http://www.w3.org/2000/svg" xmlns:xlink="http://www.w3.org/1999/xlink" width="1080" zoomAndPan="magnify" viewBox="0 0 810 809.999993" height="1080" preserveAspectRatio="xMidYMid meet" version="1.0"><path fill="#5e17eb" d="M 184.238281 160.671875 C 184.644531 160.996094 185.375 161.5625 186.34375 162.371094 C 186.261719 162.371094 186.179688 162.453125 186.097656 162.535156 C 185.210938 161.644531 184.5625 161.078125 184.238281 160.671875 Z M 707.796875 536.679688 C 705.53125 541.945312 702.855469 550.039062 697.675781 559.4375 C 695.164062 564.214844 692.652344 569.640625 689.414062 575.230469 C 686.011719 580.734375 682.371094 586.808594 678.484375 593.207031 C 674.109375 599.28125 669.492188 605.839844 664.636719 612.722656 C 659.371094 619.28125 653.621094 626.003906 647.546875 633.050781 C 634.75 646.414062 620.417969 660.667969 603.25 673.300781 C 594.988281 680.019531 585.675781 685.769531 576.363281 691.925781 C 571.746094 695.085938 566.5625 697.515625 561.621094 700.265625 C 556.601562 703.019531 551.582031 705.9375 546.234375 708.203125 C 540.890625 710.550781 535.546875 712.980469 530.199219 715.410156 C 524.695312 717.597656 519.105469 719.542969 513.4375 721.648438 C 510.601562 722.621094 507.851562 723.75 504.933594 724.644531 L 496.269531 727.152344 C 490.355469 728.691406 484.609375 730.636719 478.53125 731.769531 C 454.804688 737.273438 429.375 739.625 405.164062 740.191406 L 386.371094 739.382812 C 380.136719 739.382812 373.984375 738.570312 367.828125 737.761719 C 361.753906 736.953125 355.519531 736.632812 349.523438 735.332031 C 343.453125 734.117188 337.460938 732.988281 331.46875 731.769531 C 325.390625 730.636719 319.644531 728.691406 313.730469 727.152344 L 305.066406 724.644531 C 302.148438 723.75 299.398438 722.621094 296.5625 721.648438 C 290.894531 719.542969 285.304688 717.597656 279.800781 715.410156 C 274.453125 712.980469 269.109375 710.550781 263.765625 708.203125 C 258.417969 705.9375 253.398438 703.019531 248.378906 700.265625 C 243.4375 697.515625 238.253906 695.085938 233.636719 691.925781 C 224.324219 685.769531 215.011719 680.019531 206.75 673.21875 C 189.582031 660.585938 175.25 646.414062 162.453125 633.050781 C 156.378906 626.003906 150.628906 619.28125 145.363281 612.722656 C 140.507812 605.839844 135.890625 599.28125 131.515625 593.207031 C 127.628906 586.730469 123.988281 580.734375 120.585938 575.230469 C 117.347656 569.640625 114.835938 564.132812 112.324219 559.4375 C 107.144531 549.960938 104.46875 541.945312 102.203125 536.679688 C 100.582031 532.710938 99.449219 530.121094 99.042969 529.070312 C 99.53125 530.121094 100.824219 532.628906 102.6875 536.4375 C 105.277344 541.621094 108.519531 549.394531 114.105469 558.546875 C 116.78125 563.164062 119.453125 568.425781 123.015625 573.769531 C 126.578125 579.117188 130.464844 584.863281 134.59375 591.019531 C 139.128906 596.851562 143.992188 603.085938 149.171875 609.648438 C 153.300781 614.261719 157.515625 619.121094 162.046875 624.0625 C 165.285156 620.335938 172.898438 611.507812 183.105469 599.929688 C 190.148438 592.152344 198.167969 583.003906 206.996094 573.445312 C 215.824219 563.808594 225.296875 553.523438 234.691406 543.320312 C 244.246094 533.195312 253.800781 523.074219 262.792969 513.519531 C 271.699219 504.042969 280.285156 495.375 287.574219 487.847656 C 300.53125 474.566406 309.84375 465.414062 311.707031 463.632812 C 309.761719 465.898438 301.339844 475.699219 289.191406 489.382812 C 282.226562 497.160156 274.210938 506.308594 265.300781 515.945312 C 256.476562 525.585938 247.078125 535.789062 237.6875 546.074219 C 228.050781 556.199219 218.496094 566.320312 209.585938 575.796875 C 200.597656 585.351562 192.011719 593.933594 184.804688 601.464844 C 174.035156 612.5625 165.773438 620.742188 162.210938 624.226562 C 163.585938 625.84375 165.046875 627.464844 166.582031 629.082031 C 172.738281 635.15625 179.132812 641.394531 186.097656 647.46875 C 189.824219 643.742188 197.84375 635.640625 208.535156 625.273438 C 216.066406 617.988281 224.730469 609.402344 234.203125 600.496094 C 243.761719 591.503906 253.882812 581.949219 264.003906 572.394531 C 274.210938 563 284.496094 553.523438 294.132812 544.699219 C 303.691406 535.871094 312.921875 527.851562 320.617188 520.808594 C 334.464844 508.578125 344.425781 500.15625 346.527344 498.375 C 344.507812 500.480469 335.273438 509.710938 322.152344 522.507812 C 314.625 529.714844 306.039062 538.300781 296.480469 547.289062 C 287.007812 556.199219 276.886719 565.835938 266.761719 575.390625 C 256.476562 584.785156 246.273438 594.175781 236.632812 603.007812 C 226.996094 611.914062 217.847656 619.933594 210.070312 626.894531 C 198.898438 636.859375 190.3125 644.226562 186.34375 647.628906 C 193.957031 654.511719 202.21875 661.152344 211.125 667.308594 C 219.386719 673.703125 228.617188 679.046875 237.929688 684.800781 C 242.464844 687.714844 247.566406 689.980469 252.425781 692.652344 C 257.363281 695.246094 262.226562 698 267.570312 700.105469 C 272.753906 702.375 277.933594 704.640625 283.199219 706.988281 C 288.625 709.015625 294.132812 710.792969 299.558594 712.742188 C 302.390625 713.628906 305.066406 714.761719 307.902344 715.574219 L 316.402344 717.839844 C 322.070312 719.21875 327.742188 721.160156 333.574219 722.214844 C 356.652344 727.476562 381.109375 729.585938 404.835938 730.066406 C 429.539062 729.585938 453.105469 727.476562 476.425781 722.214844 C 482.257812 721.160156 487.929688 719.21875 493.597656 717.839844 L 502.097656 715.574219 C 504.933594 714.683594 507.609375 713.628906 510.359375 712.742188 C 515.867188 710.792969 521.375 708.933594 526.800781 706.90625 C 532.066406 704.640625 537.246094 702.375 542.429688 700.105469 C 562.921875 690.46875 582.113281 679.695312 598.875 667.308594 C 607.78125 661.152344 616.042969 654.511719 623.65625 647.628906 C 619.6875 644.226562 611.101562 636.859375 599.929688 626.894531 C 592.152344 619.933594 583.003906 611.914062 573.367188 603.007812 C 563.808594 594.175781 553.523438 584.785156 543.238281 575.390625 C 533.113281 565.835938 522.992188 556.199219 513.519531 547.289062 C 504.042969 538.300781 495.375 529.714844 487.847656 522.507812 C 474.726562 509.710938 465.574219 500.480469 463.550781 498.375 C 465.65625 500.15625 475.535156 508.578125 489.382812 520.808594 C 497.160156 527.851562 506.308594 535.871094 515.945312 544.699219 C 525.503906 553.523438 535.789062 563 546.074219 572.394531 C 556.199219 581.949219 566.320312 591.503906 575.796875 600.496094 C 585.269531 609.402344 593.933594 617.988281 601.464844 625.273438 C 612.15625 635.640625 620.175781 643.742188 623.902344 647.46875 C 630.867188 641.394531 637.261719 635.15625 643.417969 629.082031 C 644.953125 627.464844 646.414062 625.84375 647.789062 624.226562 C 644.226562 620.660156 635.964844 612.480469 625.195312 601.464844 C 617.988281 593.933594 609.402344 585.269531 600.414062 575.796875 C 591.503906 566.320312 581.949219 556.199219 572.394531 546.074219 C 562.921875 535.789062 553.523438 525.585938 544.695312 515.945312 C 535.789062 506.308594 527.773438 497.160156 520.808594 489.382812 C 508.660156 475.699219 500.238281 465.898438 498.292969 463.632812 C 500.15625 465.414062 509.46875 474.566406 522.425781 487.847656 C 529.714844 495.375 538.300781 504.042969 547.207031 513.519531 C 556.199219 523.074219 565.753906 533.195312 575.308594 543.320312 C 584.78125 553.523438 594.175781 563.808594 603.003906 573.445312 C 611.832031 583.003906 619.933594 592.152344 626.894531 599.929688 C 637.101562 611.425781 644.632812 620.175781 648.035156 623.980469 C 652.484375 619.039062 656.777344 614.261719 660.828125 609.648438 C 665.929688 603.085938 670.789062 596.851562 675.40625 591.019531 C 679.535156 584.863281 683.421875 579.117188 686.984375 573.769531 C 690.546875 568.425781 693.21875 563.164062 695.894531 558.546875 C 701.480469 549.394531 704.722656 541.621094 707.3125 536.4375 C 709.175781 532.628906 710.46875 530.121094 710.957031 529.070312 C 710.550781 530.121094 709.417969 532.710938 707.796875 536.679688 Z M 299.476562 427.027344 C 300.777344 433.910156 302.472656 440.3125 304.5 445.652344 C 306.441406 450.996094 308.304688 455.453125 309.761719 458.449219 C 311.222656 461.445312 312.109375 463.148438 312.109375 463.148438 C 312.109375 463.148438 310.898438 461.605469 309.113281 458.773438 C 307.253906 455.9375 304.660156 451.886719 302.3125 446.546875 C 300.046875 441.199219 297.535156 434.882812 295.996094 427.753906 C 294.296875 420.628906 293.484375 412.773438 293.40625 405 C 293.484375 397.226562 294.296875 389.453125 295.996094 382.324219 C 297.535156 375.199219 300.046875 368.800781 302.3125 363.535156 C 304.660156 358.191406 307.253906 354.0625 309.113281 351.226562 C 310.898438 348.394531 312.109375 346.933594 312.109375 346.933594 C 312.109375 346.933594 311.222656 348.636719 309.761719 351.632812 C 308.304688 354.628906 306.441406 359.003906 304.417969 364.347656 C 300.53125 375.035156 297.375 389.9375 297.457031 405 C 297.457031 412.613281 298.179688 420.066406 299.476562 427.027344 Z M 458.367188 309.761719 C 455.453125 308.304688 450.996094 306.441406 445.652344 304.5 C 440.3125 302.554688 433.910156 300.777344 427.027344 299.476562 C 419.984375 298.179688 412.613281 297.457031 405 297.457031 C 389.933594 297.375 375.035156 300.53125 364.347656 304.5 C 359.003906 306.441406 354.628906 308.304688 351.632812 309.761719 C 348.636719 311.304688 346.933594 312.109375 346.933594 312.109375 C 346.933594 312.109375 348.394531 310.898438 351.226562 309.113281 C 354.0625 307.335938 358.191406 304.738281 363.453125 302.394531 C 368.800781 300.046875 375.199219 297.535156 382.324219 295.996094 C 389.453125 294.296875 397.226562 293.484375 405 293.40625 C 412.773438 293.484375 420.628906 294.296875 427.675781 295.996094 C 434.882812 297.535156 441.199219 300.046875 446.546875 302.394531 C 451.886719 304.660156 455.9375 307.335938 458.773438 309.113281 C 461.605469 310.898438 463.148438 312.109375 463.148438 312.109375 C 463.148438 312.109375 461.445312 311.304688 458.367188 309.761719 Z M 349.847656 405 C 349.847656 374.550781 374.550781 349.851562 405 349.851562 C 435.449219 349.851562 460.152344 374.550781 460.152344 405 C 460.152344 435.53125 435.449219 460.234375 405 460.234375 C 374.550781 460.234375 349.847656 435.53125 349.847656 405 Z M 351.632812 500.238281 C 354.628906 501.777344 359.003906 503.640625 364.347656 505.582031 C 375.035156 509.46875 389.933594 512.707031 405 512.625 C 412.613281 512.625 419.984375 511.902344 427.027344 510.601562 C 433.910156 509.304688 440.3125 507.527344 445.652344 505.582031 C 450.996094 503.640625 455.453125 501.777344 458.367188 500.238281 C 461.445312 498.777344 463.148438 497.972656 463.148438 497.972656 C 463.148438 497.972656 461.605469 499.101562 458.773438 500.964844 C 455.9375 502.746094 451.886719 505.339844 446.546875 507.6875 C 441.199219 510.035156 434.882812 512.464844 427.675781 514.085938 C 420.628906 515.703125 412.773438 516.59375 405 516.675781 C 397.226562 516.59375 389.453125 515.703125 382.324219 514.085938 C 375.199219 512.464844 368.800781 510.035156 363.453125 507.6875 C 358.191406 505.339844 354.0625 502.746094 351.226562 500.964844 C 348.394531 499.101562 346.933594 497.972656 346.933594 497.972656 C 346.933594 497.972656 348.636719 498.777344 351.632812 500.238281 Z M 505.5 364.347656 C 503.558594 359.003906 501.695312 354.628906 500.238281 351.632812 C 498.695312 348.636719 497.890625 346.933594 497.890625 346.933594 C 497.890625 346.933594 499.019531 348.394531 500.886719 351.226562 C 502.664062 354.0625 505.261719 358.191406 507.609375 363.535156 C 509.953125 368.800781 512.382812 375.199219 514.003906 382.324219 C 515.703125 389.453125 516.515625 397.226562 516.59375 405.082031 C 516.515625 412.773438 515.703125 420.628906 514.003906 427.753906 C 512.464844 434.882812 509.953125 441.199219 507.609375 446.546875 C 505.339844 451.886719 502.664062 455.9375 500.886719 458.773438 C 499.101562 461.605469 497.890625 463.148438 497.890625 463.148438 C 497.890625 463.148438 498.695312 461.445312 500.238281 458.449219 C 501.695312 455.453125 503.558594 450.996094 505.5 445.652344 C 507.445312 440.3125 509.222656 433.910156 510.523438 427.027344 C 511.820312 419.984375 512.542969 412.613281 512.542969 405 C 512.625 390.015625 509.386719 375.035156 505.5 364.347656 Z M 102.203125 273.320312 C 104.46875 268.136719 107.144531 260.039062 112.324219 250.644531 C 114.835938 245.867188 117.347656 240.441406 120.585938 234.851562 C 123.988281 229.265625 127.628906 223.269531 131.515625 216.875 C 135.890625 210.71875 140.507812 204.242188 145.363281 197.359375 C 150.628906 190.796875 156.378906 183.996094 162.453125 177.03125 C 175.25 163.667969 189.582031 149.414062 206.75 136.78125 C 215.011719 130.0625 224.324219 124.308594 233.636719 118.152344 C 238.253906 114.996094 243.4375 112.570312 248.378906 109.734375 C 253.398438 107.0625 258.417969 104.144531 263.765625 101.878906 C 269.109375 99.449219 274.453125 97.097656 279.800781 94.667969 C 285.304688 92.484375 290.894531 90.539062 296.5625 88.433594 C 299.398438 87.460938 302.148438 86.332031 305.066406 85.4375 L 313.730469 82.929688 C 319.644531 81.386719 325.390625 79.445312 331.46875 78.3125 C 355.277344 72.804688 380.136719 70.453125 405 69.886719 L 423.546875 70.617188 C 429.621094 70.699219 435.855469 71.507812 442.007812 72.238281 C 448.164062 73.128906 454.480469 73.449219 460.476562 74.746094 C 466.546875 75.882812 472.539062 77.09375 478.53125 78.3125 C 484.609375 79.445312 490.355469 81.386719 496.269531 82.929688 L 504.933594 85.355469 C 507.851562 86.332031 510.601562 87.378906 513.4375 88.433594 C 519.105469 90.539062 524.695312 92.484375 530.199219 94.589844 C 535.546875 97.019531 540.890625 99.449219 546.234375 101.878906 C 551.582031 104.144531 556.601562 107.0625 561.621094 109.734375 C 566.5625 112.570312 571.746094 114.996094 576.363281 118.152344 C 585.675781 124.308594 594.988281 130.0625 603.25 136.78125 C 620.417969 149.414062 634.75 163.667969 647.546875 177.03125 C 653.621094 183.996094 659.371094 190.796875 664.636719 197.359375 C 669.492188 204.242188 674.109375 210.71875 678.484375 216.875 C 682.371094 223.269531 686.011719 229.265625 689.414062 234.851562 C 692.652344 240.441406 695.164062 245.867188 697.675781 250.644531 C 702.855469 260.039062 705.53125 268.136719 707.796875 273.320312 C 709.417969 277.289062 710.550781 279.960938 710.957031 281.011719 C 710.46875 279.960938 709.175781 277.449219 707.3125 273.566406 C 704.722656 268.460938 701.480469 260.683594 695.894531 251.535156 C 693.21875 246.917969 690.546875 241.65625 686.984375 236.3125 C 683.421875 230.964844 679.535156 225.21875 675.40625 218.980469 C 670.789062 213.148438 665.929688 206.996094 660.828125 200.433594 C 656.699219 195.816406 652.484375 190.960938 647.953125 186.019531 C 644.632812 189.824219 637.101562 198.65625 626.894531 210.070312 C 619.933594 217.847656 611.832031 226.996094 603.003906 236.632812 C 594.175781 246.273438 584.78125 256.476562 575.308594 266.761719 C 565.753906 276.886719 556.199219 287.007812 547.207031 296.480469 C 538.300781 306.039062 529.714844 314.703125 522.425781 322.234375 C 508.742188 336.246094 499.183594 345.71875 497.972656 346.855469 C 498.9375 345.71875 507.6875 335.351562 520.808594 320.695312 C 527.773438 312.921875 535.789062 303.691406 544.695312 294.132812 C 553.523438 284.496094 562.921875 274.292969 572.394531 264.003906 C 581.949219 253.882812 591.503906 243.761719 600.414062 234.285156 C 609.402344 224.730469 617.988281 216.066406 625.195312 208.535156 C 635.964844 197.601562 644.226562 189.417969 647.789062 185.855469 C 646.414062 184.238281 644.953125 182.617188 643.417969 180.917969 C 637.261719 174.925781 630.867188 168.6875 623.902344 162.535156 C 620.257812 166.257812 612.238281 174.359375 601.464844 184.804688 C 593.933594 192.015625 585.269531 200.597656 575.796875 209.585938 C 566.320312 218.574219 556.199219 228.132812 546.074219 237.6875 C 535.789062 247.078125 525.503906 256.476562 515.945312 265.382812 C 506.308594 274.210938 497.160156 282.226562 489.382812 289.195312 C 476.589844 300.695312 467.117188 308.707031 464.121094 311.304688 C 466.792969 308.386719 475.535156 299.476562 487.847656 287.574219 C 495.375 280.285156 504.042969 271.699219 513.519531 262.792969 C 522.992188 253.800781 533.113281 244.246094 543.238281 234.691406 C 553.523438 225.296875 563.808594 215.824219 573.367188 206.996094 C 583.003906 198.167969 592.152344 190.148438 599.929688 183.105469 C 611.101562 173.222656 619.6875 165.855469 623.65625 162.371094 C 616.042969 155.570312 607.78125 148.929688 598.875 142.691406 C 582.113281 130.304688 562.921875 119.53125 542.429688 109.976562 C 537.246094 107.707031 532.066406 105.441406 526.800781 103.09375 C 521.375 101.066406 515.867188 99.285156 510.359375 97.339844 C 507.609375 96.371094 504.933594 95.316406 502.097656 94.507812 L 493.597656 92.242188 C 487.929688 90.78125 482.257812 88.921875 476.425781 87.785156 C 470.597656 86.734375 464.765625 85.601562 458.855469 84.464844 C 453.023438 83.171875 447.113281 82.929688 441.117188 82.117188 C 429.539062 80.335938 416.742188 80.660156 405 80.011719 C 380.867188 80.414062 356.734375 82.605469 333.574219 87.785156 C 327.742188 88.921875 322.070312 90.78125 316.402344 92.242188 L 307.902344 94.507812 C 305.066406 95.316406 302.390625 96.371094 299.558594 97.339844 C 294.132812 99.285156 288.625 101.066406 283.199219 103.09375 C 277.933594 105.441406 272.753906 107.707031 267.570312 109.976562 C 262.226562 112 257.363281 114.835938 252.425781 117.425781 C 247.566406 120.101562 242.464844 122.285156 237.929688 125.28125 C 228.617188 130.953125 219.386719 136.378906 211.125 142.691406 C 202.21875 148.929688 193.957031 155.570312 186.34375 162.371094 C 190.3125 165.855469 198.898438 173.222656 210.070312 183.105469 C 217.847656 190.148438 226.996094 198.167969 236.632812 206.996094 C 246.273438 215.824219 256.476562 225.296875 266.761719 234.691406 C 276.886719 244.246094 287.007812 253.800781 296.480469 262.792969 C 306.039062 271.699219 314.625 280.285156 322.152344 287.574219 C 334.464844 299.476562 343.289062 308.386719 345.960938 311.304688 C 342.964844 308.707031 333.410156 300.695312 320.617188 289.195312 C 312.921875 282.226562 303.691406 274.210938 294.132812 265.382812 C 284.496094 256.476562 274.210938 247.078125 264.003906 237.6875 C 253.882812 228.132812 243.761719 218.574219 234.203125 209.585938 C 224.730469 200.679688 216.066406 192.015625 208.535156 184.804688 C 197.761719 174.359375 189.742188 166.257812 186.097656 162.535156 C 179.132812 168.6875 172.738281 174.847656 166.582031 180.917969 C 165.046875 182.535156 163.585938 184.15625 162.210938 185.773438 C 165.773438 189.257812 174.035156 197.519531 184.804688 208.535156 C 192.011719 216.066406 200.597656 224.730469 209.585938 234.285156 C 218.496094 243.761719 228.050781 253.882812 237.6875 264.003906 C 247.078125 274.292969 256.476562 284.496094 265.300781 294.132812 C 274.210938 303.769531 282.226562 312.921875 289.191406 320.695312 C 302.3125 335.351562 311.0625 345.71875 312.027344 346.855469 C 310.816406 345.71875 301.257812 336.246094 287.574219 322.234375 C 280.285156 314.703125 271.699219 306.039062 262.792969 296.480469 C 253.800781 287.007812 244.246094 276.886719 234.691406 266.761719 C 225.296875 256.476562 215.824219 246.273438 206.996094 236.632812 C 198.167969 227.078125 190.148438 217.847656 183.105469 210.070312 C 172.898438 198.574219 165.285156 189.742188 162.046875 185.9375 C 157.515625 190.960938 153.300781 195.738281 149.171875 200.351562 C 143.992188 206.914062 139.128906 213.148438 134.59375 218.980469 C 130.464844 225.136719 126.578125 230.964844 123.015625 236.3125 C 119.453125 241.65625 116.78125 246.917969 114.105469 251.535156 C 108.519531 260.683594 105.277344 268.460938 102.6875 273.566406 C 100.824219 277.449219 99.53125 279.960938 99.042969 281.011719 C 99.449219 279.960938 100.582031 277.289062 102.203125 273.320312 Z M 405 0 C 181.324219 0 0 181.324219 0 405 C 0 628.675781 181.324219 810 405 810 C 628.675781 810 810 628.675781 810 405 C 810 181.324219 628.675781 0 405 0 " fill-opacity="1" fill-rule="nonzero"/></svg>